<svg width="727" height="1153" viewBox="0 0 727 1153" fill="none" xmlns="http://www.w3.org/2000/svg">
<path d="M726.68 0.790039H0.620117V1152.79H726.68V0.790039Z" fill="#C0BAA4"/>
<path d="M706.68 20.79V1132.79H20.6201V20.79H706.68ZM716.68 10.79H10.6201V1142.79H716.68V10.79Z" fill="#ABA692"/>
<path d="M658.02 67.9299H69.2798V583.91H658.02V67.9299Z" fill="white"/>
<path d="M653.02 72.9299V578.91H74.2798V72.9299H653.02ZM663.02 62.9299H64.2798V588.91H663.02V62.9299Z" fill="#ABA692"/>
<path d="M686.68 40.79V1112.79H40.6201V40.79H686.68ZM696.68 30.79H30.6201V1122.79H696.68V30.79Z" fill="#ABA692"/>
<path d="M658.02 621.81H69.2798V1085.64H658.02V621.81Z" fill="white"/>
<path d="M653.02 626.81V1080.64H74.2798V616.81H653.02M663.02 616.81H64.2798V1090.64H663.02V616.81Z" fill="#ABA692"/>
<path d="M663.02 245.83V223.09L64.2803 223.09V245.83L663.02 245.83Z" fill="#ABA692"/>
<path d="M663.01 424.92V402.18L64.2705 402.18V424.92L663.01 424.92Z" fill="#ABA692"/>
<path d="M663.02 775.05V752.31H64.2803V775.05H663.02Z" fill="#ABA692"/>
<path d="M663.01 955.14V932.4H64.27V955.14H663.01Z" fill="#ABA692"/>
<path d="M274.98 71.78H252.24V1090.63H274.98V71.78Z" fill="#C0BAA4"/>
<path d="M475.06 71.78H452.32V1090.63H475.06V71.78Z" fill="#C0BAA4"/>
<path d="M192.6 559.23H147.01V581.46H192.6V559.23Z" fill="#878373"/>
<path d="M225.96 551.65H152.57C149.499 551.65 147.01 554.139 147.01 557.21C147.01 560.281 149.499 562.77 152.57 562.77H225.96C229.031 562.77 231.52 560.281 231.52 557.21C231.52 554.139 229.031 551.65 225.96 551.65Z" fill="#ABA692"/>
<path d="M583.68 559.23H538.09V581.46H583.68V559.23Z" fill="#878373"/>
<path d="M617.04 551.65H543.65C540.579 551.65 538.09 554.139 538.09 557.21C538.09 560.281 540.579 562.77 543.65 562.77H617.04C620.111 562.77 622.6 560.281 622.6 557.21C622.6 554.139 620.111 551.65 617.04 551.65Z" fill="#ABA692"/>
<g style="mix-blend-mode:multiply" opacity="0.5">
<path d="M663.02 616.81H64.2798V632.04H663.02V616.81Z" fill="#ABA692"/>
</g>
<g style="mix-blend-mode:multiply" opacity="0.5">
<path d="M663.02 73.54H64.2798V88.77H663.02V73.54Z" fill="#ABA692"/>
</g>
<g style="mix-blend-mode:multiply" opacity="0.5">
<path d="M696.68 1112.79H30.6201V1128.02H696.68V1112.79Z" fill="#ABA692"/>
</g>
<path d="M204.96 571.35H134.01C130.939 571.35 128.45 573.839 128.45 576.91V578.17C128.45 581.241 130.939 583.73 134.01 583.73H204.96C208.031 583.73 210.52 581.241 210.52 578.17V576.91C210.52 573.839 208.031 571.35 204.96 571.35Z" fill="#ABA692"/>
<path d="M596.03 571.35H525.08C522.009 571.35 519.52 573.839 519.52 576.91V578.17C519.52 581.241 522.009 583.73 525.08 583.73H596.03C599.1 583.73 601.59 581.241 601.59 578.17V576.91C601.59 573.839 599.1 571.35 596.03 571.35Z" fill="#ABA692"/>
</svg>
