<svg width="727" height="1153" viewBox="0 0 727 1153" fill="none" xmlns="http://www.w3.org/2000/svg">
<g style="mix-blend-mode:multiply" opacity="0.9">
<path d="M0.609863 0.529785V1152.53H726.68V0.529785H0.609863ZM475.06 932.14V774.79H653.01V932.14H475.06ZM653.01 954.87V1080.38H475.06V954.87H653.01ZM475.06 752.05V621.55H653.01V752.05H475.06ZM601.53 578.65C601.56 578.41 601.59 578.17 601.59 577.91V576.65C601.59 573.58 599.1 571.09 596.03 571.09H583.68V562.5H617.03C620.1 562.5 622.59 560.02 622.59 556.95C622.59 553.88 620.1 551.39 617.03 551.39H543.64C540.57 551.39 538.08 553.88 538.08 556.95C538.08 557.66 538.22 558.34 538.47 558.97H538.08V571.09H525.08C522.01 571.09 519.52 573.58 519.52 576.65V577.91C519.52 578.17 519.54 578.41 519.57 578.65H475.06V424.65H653.01V578.65H601.53ZM475.06 401.91V245.57H653.01V401.91H475.06ZM475.06 222.83V73.2798H653.01V222.83H475.06ZM274.97 932.14V774.79H452.32V932.14H274.97ZM452.32 954.87V1080.38H274.97V954.87H452.32ZM274.97 752.05V621.55H452.32V752.05H274.97ZM274.97 578.65V424.65H452.32V578.65H274.97ZM274.97 401.91V245.57H452.32V401.91H274.97ZM274.97 222.83V73.2798H452.32V222.83H274.97ZM74.2798 932.14V774.79H252.23V932.14H74.2798ZM252.23 954.87V1080.38H74.2798V954.87H252.23ZM74.2798 752.05V621.55H252.23V752.05H74.2798ZM210.46 578.65C210.49 578.41 210.51 578.17 210.51 577.91V576.65C210.51 573.58 208.02 571.09 204.95 571.09H192.6V562.5H225.96C229.03 562.5 231.52 560.02 231.52 556.95C231.52 553.88 229.03 551.39 225.96 551.39H152.57C149.5 551.39 147.01 553.88 147.01 556.95C147.01 557.66 147.15 558.34 147.39 558.97H147.01V571.09H134C130.93 571.09 128.44 573.58 128.44 576.65V577.91C128.44 578.17 128.47 578.41 128.5 578.65H74.2798V424.65H252.23V578.65H210.46ZM74.2798 401.91V245.57H252.23V401.91H74.2798ZM74.2798 222.83V73.2798H252.23V222.83H74.2798Z" fill="#802E2E"/>
</g>
</svg>
