<svg width="92" height="144" viewBox="0 0 92 144" fill="none" xmlns="http://www.w3.org/2000/svg">
<g id="svgviewer-output" clip-path="url(#clip0_256_23937)">
<path id="Vector" d="M30.9796 72.9351H11.2653V100.987H30.9796V72.9351ZM34.7347 72.9351V100.987H57.2653V72.9351H34.7347ZM30.9796 132.779V104.727H11.2653V132.779H30.9796ZM34.7347 132.779H57.2653V104.727H34.7347V132.779ZM30.9796 41.1429H11.2653V69.1948H30.9796V41.1429ZM34.7347 41.1429V69.1948H57.2653V41.1429H34.7347ZM30.9796 11.2208H11.2653V37.4026H30.9796V11.2208ZM34.7347 11.2208V37.4026H57.2653V11.2208H34.7347ZM80.7347 100.987V72.9351H61.0204V100.987H80.7347ZM80.7347 104.727H61.0204V132.779H80.7347V104.727ZM80.7347 69.1948V41.1429H61.0204V69.1948H80.7347ZM80.7347 37.4026V11.2208H61.0204V37.4026H80.7347ZM92 0V144H0V0H92ZM3.7551 3.74026V140.26H88.2449V3.74026H3.7551ZM84.4898 7.48052V136.519H7.5102V7.48052H84.4898Z" fill="#CECECE"/>
</g>
<defs>
<clipPath id="clip0_256_23937">
<rect width="92" height="144" fill="white"/>
</clipPath>
</defs>
</svg>
