<svg width="727" height="1153" viewBox="0 0 727 1153" fill="none" xmlns="http://www.w3.org/2000/svg">
<path d="M726.37 0.209961H0.310059V1152.21H726.37V0.209961Z" fill="#C0BAA4"/>
<path d="M706.38 20.21V1132.21H20.3198V20.21H706.38ZM716.38 10.21H10.3198V1142.21H716.38V10.21Z" fill="#ABA692"/>
<path d="M657.72 67.3601H68.98V583.34H657.72V67.3601Z" fill="white"/>
<path d="M652.71 72.3601V578.34H73.9702V72.3601H652.71ZM662.71 62.3601H63.9702V588.34H662.71V62.3601Z" fill="#ABA692"/>
<path d="M686.38 40.21V1112.21H40.3198V40.21H686.38ZM696.38 30.21H30.3198V1122.21H696.38V30.21Z" fill="#ABA692"/>
<path d="M657.72 621.23H68.98V1085.06H657.72V621.23Z" fill="white"/>
<path d="M652.71 626.23V1080.06H73.9702V616.23H652.71M662.71 616.23H63.9702V1090.06H662.71V616.23Z" fill="#ABA692"/>
<path d="M192.3 558.65H146.71V580.88H192.3V558.65Z" fill="#878373"/>
<path d="M225.66 551.07H152.27C149.199 551.07 146.71 553.559 146.71 556.63C146.71 559.701 149.199 562.19 152.27 562.19H225.66C228.731 562.19 231.22 559.701 231.22 556.63C231.22 553.559 228.731 551.07 225.66 551.07Z" fill="#ABA692"/>
<path d="M583.37 558.65H537.78V580.88H583.37V558.65Z" fill="#878373"/>
<path d="M616.73 551.07H543.34C540.269 551.07 537.78 553.559 537.78 556.63C537.78 559.701 540.269 562.19 543.34 562.19H616.73C619.801 562.19 622.29 559.701 622.29 556.63C622.29 553.559 619.801 551.07 616.73 551.07Z" fill="#ABA692"/>
<g style="mix-blend-mode:multiply" opacity="0.5">
<path d="M662.72 616.23H63.98V631.46H662.72V616.23Z" fill="#ABA692"/>
</g>
<g style="mix-blend-mode:multiply" opacity="0.5">
<path d="M662.72 72.97H63.98V88.2H662.72V72.97Z" fill="#ABA692"/>
</g>
<g style="mix-blend-mode:multiply" opacity="0.5">
<path d="M696.37 1112.21H30.3101V1127.44H696.37V1112.21Z" fill="#ABA692"/>
</g>
<path d="M204.66 570.78H133.71C130.639 570.78 128.15 573.269 128.15 576.34V577.6C128.15 580.671 130.639 583.16 133.71 583.16H204.66C207.731 583.16 210.22 580.671 210.22 577.6V576.34C210.22 573.269 207.731 570.78 204.66 570.78Z" fill="#ABA692"/>
<path d="M595.73 570.78H524.78C521.709 570.78 519.22 573.269 519.22 576.34V577.6C519.22 580.671 521.709 583.16 524.78 583.16H595.73C598.801 583.16 601.29 580.671 601.29 577.6V576.34C601.29 573.269 598.801 570.78 595.73 570.78Z" fill="#ABA692"/>
<path d="M128.4 70.3101L73.98 147.92V193.75L160.54 70.3101H128.4Z" fill="#ABA692"/>
<path d="M347.78 70.3101L73.98 460.76V506.6L379.92 70.3101H347.78Z" fill="#ABA692"/>
<path d="M245.74 581.89L597.73 70.3101H566.19L214.21 581.89H245.74Z" fill="#ABA692"/>
<path d="M635.04 581.89L652.61 556.36V510.53L603.51 581.89H635.04Z" fill="#ABA692"/>
<path d="M428.53 581.89L652.61 256.21V210.38L396.99 581.89H428.53Z" fill="#ABA692"/>
<path d="M566.04 70.3101L652.61 193.75V147.92L598.18 70.3101H566.04Z" fill="#C0BAA4"/>
<path d="M346.66 70.3101L652.61 506.6V460.76L378.8 70.3101H346.66Z" fill="#C0BAA4"/>
<path d="M512.38 581.89L160.39 70.3101H128.86L480.84 581.89H512.38Z" fill="#C0BAA4"/>
<path d="M123.07 581.89L73.98 510.53V556.36L91.54 581.89H123.07Z" fill="#C0BAA4"/>
<path d="M329.59 581.89L73.98 210.38V256.21L298.06 581.89H329.59Z" fill="#C0BAA4"/>
<path d="M128.4 616.23L73.98 693.84V739.67L160.54 616.23H128.4Z" fill="#ABA692"/>
<path d="M347.78 616.23L73.98 1006.69V1052.52L379.92 616.23H347.78Z" fill="#ABA692"/>
<path d="M278.76 1079.83L597.73 616.23H566.19L247.22 1079.83H278.76Z" fill="#ABA692"/>
<path d="M652.61 1079.83V1056.45L636.53 1079.83H652.61Z" fill="#ABA692"/>
<path d="M461.54 1079.83L652.61 802.13V756.3L430.01 1079.83H461.54Z" fill="#ABA692"/>
<path d="M566.04 616.23L652.61 739.67V693.84L598.18 616.23H566.04Z" fill="#C0BAA4"/>
<path d="M346.66 616.23L652.61 1052.52V1006.69L378.8 616.23H346.66Z" fill="#C0BAA4"/>
<path d="M479.36 1079.83L160.39 616.23H128.86L447.83 1079.83H479.36Z" fill="#C0BAA4"/>
<path d="M90.0601 1079.83L73.98 1056.45V1079.83H90.0601Z" fill="#C0BAA4"/>
<path d="M296.58 1079.83L73.98 756.3V802.13L265.04 1079.83H296.58Z" fill="#C0BAA4"/>
</svg>
