<svg width="92" height="144" viewBox="0 0 92 144" fill="none" xmlns="http://www.w3.org/2000/svg">
<g id="svgviewer-output (1)" clip-path="url(#clip0_256_23939)">
<path id="Vector" d="M80.7929 136.519H12.2643L12.0786 136.706L11.7071 136.519H8.17857V7.48052H84.3214V136.519H81.35L80.9786 136.706L80.7929 136.519ZM30.8357 41.7039L46.4357 69.1948L62.4071 41.1429L46.9929 13.6519L30.8357 41.7039ZM28.6071 45.4442L12.2643 73.8701L28.4214 100.8L44.3929 72.9351L28.6071 45.4442ZM64.45 100.426L80.2357 72.374L64.6357 44.8831L48.6643 72.9351L64.45 100.426ZM62.2214 104.353L46.4357 76.6753L30.65 104.353L46.9929 131.47L62.2214 104.353ZM13.3786 11.2208L28.6071 37.9636L44.2071 11.2208H13.3786ZM11.8929 16.0831V66.9506L26.5643 41.7039L11.8929 16.0831ZM80.6071 128.852V79.2935L66.4929 104.353L80.6071 128.852ZM78.5643 132.779L64.45 108.094L50.5214 132.779H78.5643ZM79.6786 11.2208H49.9643L64.6357 37.4026L79.6786 11.2208ZM80.6071 17.0182L66.8643 41.1429L80.6071 65.8286V17.0182ZM14.3071 132.779H43.4643L28.6071 108.094L14.3071 132.779ZM11.8929 129.6L26.3786 104.353L11.8929 80.4156V129.6ZM91.75 0V144H0.75V0H91.75ZM4.46429 3.74026V140.26H88.0357V3.74026H4.46429Z" fill="#CECECE"/>
</g>
<defs>
<clipPath id="clip0_256_23939">
<rect width="91" height="144" fill="white" transform="translate(0.75)"/>
</clipPath>
</defs>
</svg>
