<svg width="727" height="1153" viewBox="0 0 727 1153" fill="none" xmlns="http://www.w3.org/2000/svg">
<g style="mix-blend-mode:multiply" opacity="0.9">
<path d="M0.319824 0.529785V1152.53H726.38V0.529785H0.319824ZM389.49 631.78L382.31 621.55H562.75L555.71 631.78L473.39 751.43L389.49 631.78ZM549.74 906.13L454.69 1044.28L379.06 934.36L473.39 797.26L549.74 906.13ZM457.47 774.57L363.29 911.45L269.11 774.57L363.29 640.26L457.47 774.57ZM347.53 934.36L271.9 1044.28L176.85 906.13L253.2 797.26L347.53 934.36ZM170.87 631.78L163.83 621.55H344.28L337.1 631.78L253.2 751.43L170.87 631.78ZM160.39 616.55L160.46 616.66L160.49 616.62L160.46 616.67L160.38 616.56L160.39 616.55ZM237.28 774.13L160.94 883L73.98 756.61V739.99L144.55 639.35L237.28 774.13ZM145.02 905.7L73.98 1007V802.44L145.02 905.7ZM117.72 631.78L73.98 694.16V621.55H124.9L117.72 631.78ZM73.98 1080.14H90.0601L73.98 1056.77V1052.83L160.94 928.83L256.14 1067.19L247.23 1080.14H296.58L287.67 1067.19L363.29 957.28L438.92 1067.19L430.01 1080.14H479.36L470.45 1067.19L565.65 928.83L652.61 1052.83V1007L581.57 905.7L652.61 802.44V756.61L565.65 883L489.31 774.13L582.04 639.35L652.61 739.99V694.16L608.87 631.78L601.69 621.55H652.72V1080.38H73.98V1080.14ZM73.98 73.29H126.54L115.86 88.52L73.98 148.24V73.29ZM652.72 88.52V578.65H637.49L652.61 556.68V510.85L622.04 555.28C621.33 553.03 619.22 551.39 616.74 551.39H543.34C540.27 551.39 537.78 553.88 537.78 556.95C537.78 557.66 537.92 558.34 538.17 558.97H537.78V571.1H524.78C521.71 571.1 519.22 573.59 519.22 576.65V577.92C519.22 578.17 519.24 578.41 519.27 578.65H509.93L470.45 521.27L565.65 382.91L652.61 506.91V461.08L581.57 359.78L652.61 256.52V210.69L565.65 337.08L489.31 228.21L582.04 93.4302L652.61 194.07V148.24L610.73 88.52L600.05 73.29H652.72V88.52ZM583.38 562.51H616.74C616.85 562.51 616.97 562.51 617.08 562.49L605.96 578.65L583.38 571.1V562.51ZM204.66 571.1H192.3V562.51H225.66C226.57 562.51 227.43 562.28 228.18 561.9L216.66 578.65H210.16C210.19 578.41 210.21 578.17 210.21 577.92V576.65C210.21 573.59 207.73 571.1 204.66 571.1ZM128.2 578.65H120.63L73.98 510.85V506.91L160.94 382.91L256.14 521.27L231.19 557.53C231.21 557.34 231.22 557.15 231.22 556.95C231.22 553.88 228.73 551.39 225.66 551.39H152.27C149.2 551.39 146.71 553.88 146.71 556.95C146.71 557.66 146.85 558.34 147.09 558.97H146.71V571.1H133.7C130.64 571.1 128.15 573.59 128.15 576.65V577.92C128.15 578.17 128.17 578.41 128.2 578.65ZM391.35 88.52L380.67 73.29H564.36L553.89 88.52L473.39 205.51L391.35 88.52ZM549.74 360.21L454.69 498.36L379.06 388.44L473.39 251.34L549.74 360.21ZM457.47 228.64L363.29 365.53L269.11 228.64L363.29 94.3398L457.47 228.64ZM347.53 388.44L271.9 498.36L176.85 360.21L253.2 251.34L347.53 388.44ZM335.24 88.52L253.2 205.51L172.7 88.52L162.22 73.29H345.92L335.24 88.52ZM237.28 228.21L160.94 337.08L73.98 210.69V194.07L144.55 93.4302L237.28 228.21ZM145.02 359.78L73.98 461.08V256.52L145.02 359.78ZM271.9 544.19L295.62 578.65H248.19L271.9 544.19ZM327.15 578.65L287.67 521.27L363.29 411.36L438.92 521.27L399.44 578.65H327.15ZM454.69 544.19L478.4 578.65H430.97L454.69 544.19ZM160.39 70.6299L160.46 70.7402L160.38 70.6299H160.39ZM696.38 1122.53V30.5298V1127.76V1122.53Z" fill="#802E2E"/>
<path d="M652.61 1080.14V1056.77L636.53 1080.14H652.61Z" fill="#802E2E"/>
</g>
</svg>
