<svg width="24" height="24" viewBox="0 0 24 24" fill="none" xmlns="http://www.w3.org/2000/svg">
<g id="fluent:access-time-20-regular">
<path id="Vector" d="M8.38599 10.33C8.34839 10.4813 8.25336 10.6121 8.12102 10.6945C7.98869 10.777 7.82945 10.8047 7.67703 10.7718C7.52462 10.7389 7.39101 10.6479 7.3045 10.5182C7.21799 10.3885 7.18539 10.2301 7.21359 10.0768V10.0708L7.23759 9.98439C7.24959 9.93479 7.27039 9.87239 7.29999 9.79719C7.35639 9.64959 7.45119 9.44919 7.59999 9.24519C7.79404 8.97656 8.05062 8.75926 8.34752 8.61206C8.64442 8.46486 8.97271 8.39221 9.30399 8.40039C9.96759 8.40039 10.5064 8.65839 10.8748 9.07359C11.2324 9.47799 11.4004 9.99999 11.4004 10.5004C11.4004 10.9192 11.3176 11.278 11.1544 11.5876C11.0049 11.8629 10.7973 12.1025 10.546 12.2896C10.3613 12.4257 10.169 12.5511 9.96999 12.6652L9.90279 12.706C9.70119 12.826 9.53559 12.9304 9.39279 13.054C8.91999 13.4632 8.61039 13.8964 8.47599 14.4004H10.8004C10.9595 14.4004 11.1121 14.4636 11.2247 14.5761C11.3372 14.6886 11.4004 14.8413 11.4004 15.0004C11.4004 15.1595 11.3372 15.3121 11.2247 15.4247C11.1121 15.5372 10.9595 15.6004 10.8004 15.6004H7.80039C7.64126 15.6004 7.48865 15.5372 7.37613 15.4247C7.26361 15.3121 7.20039 15.1595 7.20039 15.0004C7.20039 13.7884 7.77039 12.8716 8.60799 12.1468C8.83599 11.9476 9.08319 11.7988 9.28839 11.6752L9.35799 11.6332C9.51497 11.5442 9.66681 11.4465 9.81279 11.3404C9.92782 11.2582 10.0233 11.1517 10.0924 11.0284C10.1724 10.8643 10.2096 10.6827 10.2004 10.5004C10.2038 10.2699 10.1242 10.0458 9.97599 9.86919C9.84399 9.72039 9.63639 9.60039 9.30399 9.60039C8.90799 9.60039 8.69799 9.77559 8.56719 9.95439C8.48862 10.0637 8.42899 10.1853 8.39079 10.3144L8.38599 10.33ZM13.2004 8.40039C13.3595 8.40039 13.5121 8.4636 13.6247 8.57613C13.7372 8.68865 13.8004 8.84126 13.8004 9.00039V12.0004H15.6004V9.00039C15.6004 8.84126 15.6636 8.68865 15.7761 8.57613C15.8886 8.4636 16.0413 8.40039 16.2004 8.40039C16.3595 8.40039 16.5121 8.4636 16.6247 8.57613C16.7372 8.68865 16.8004 8.84126 16.8004 9.00039V15.0004C16.8004 15.1595 16.7372 15.3121 16.6247 15.4247C16.5121 15.5372 16.3595 15.6004 16.2004 15.6004C16.0413 15.6004 15.8886 15.5372 15.7761 15.4247C15.6636 15.3121 15.6004 15.1595 15.6004 15.0004V13.2004H13.2004C13.0413 13.2004 12.8886 13.1372 12.7761 13.0247C12.6636 12.9121 12.6004 12.7595 12.6004 12.6004V9.00039C12.6004 8.84126 12.6636 8.68865 12.7761 8.57613C12.8886 8.4636 13.0413 8.40039 13.2004 8.40039ZM12.0004 2.40039C9.45431 2.40039 7.01252 3.41182 5.21217 5.21217C3.41182 7.01252 2.40039 9.45431 2.40039 12.0004C2.40039 14.5465 3.41182 16.9883 5.21217 18.7886C7.01252 20.589 9.45431 21.6004 12.0004 21.6004C14.5465 21.6004 16.9883 20.589 18.7886 18.7886C20.589 16.9883 21.6004 14.5465 21.6004 12.0004C21.6004 9.45431 20.589 7.01252 18.7886 5.21217C16.9883 3.41182 14.5465 2.40039 12.0004 2.40039ZM3.60039 12.0004C3.60039 10.8973 3.81766 9.80499 4.2398 8.78585C4.66194 7.76672 5.28068 6.84071 6.06069 6.06069C6.84071 5.28068 7.76672 4.66194 8.78585 4.2398C9.80499 3.81766 10.8973 3.60039 12.0004 3.60039C13.1035 3.60039 14.1958 3.81766 15.2149 4.2398C16.2341 4.66194 17.1601 5.28068 17.9401 6.06069C18.7201 6.84071 19.3388 7.76672 19.761 8.78585C20.1831 9.80499 20.4004 10.8973 20.4004 12.0004C20.4004 14.2282 19.5154 16.3648 17.9401 17.9401C16.3648 19.5154 14.2282 20.4004 12.0004 20.4004C9.77257 20.4004 7.636 19.5154 6.06069 17.9401C4.48539 16.3648 3.60039 14.2282 3.60039 12.0004Z" fill="white"/>
</g>
</svg>
