<svg width="64" height="64" viewBox="0 0 64 64" fill="none" xmlns="http://www.w3.org/2000/svg">
<g id="bi:calendar-check-fill" clip-path="url(#clip0_172_21203)">
<path id="Vector" d="M16 2C16 1.46957 15.7893 0.960859 15.4142 0.585786C15.0391 0.210714 14.5304 0 14 0C13.4696 0 12.9609 0.210714 12.5858 0.585786C12.2107 0.960859 12 1.46957 12 2V4H8C5.87827 4 3.84344 4.84285 2.34315 6.34315C0.842855 7.84344 0 9.87827 0 12L0 16H64V12C64 9.87827 63.1571 7.84344 61.6569 6.34315C60.1566 4.84285 58.1217 4 56 4H52V2C52 1.46957 51.7893 0.960859 51.4142 0.585786C51.0391 0.210714 50.5304 0 50 0C49.4696 0 48.9609 0.210714 48.5858 0.585786C48.2107 0.960859 48 1.46957 48 2V4H16V2ZM64 56V20H0V56C0 58.1217 0.842855 60.1566 2.34315 61.6569C3.84344 63.1571 5.87827 64 8 64H56C58.1217 64 60.1566 63.1571 61.6569 61.6569C63.1571 60.1566 64 58.1217 64 56ZM43.416 35.416L31.416 47.416C31.2302 47.6023 31.0095 47.75 30.7665 47.8508C30.5236 47.9517 30.2631 48.0036 30 48.0036C29.7369 48.0036 29.4764 47.9517 29.2335 47.8508C28.9905 47.75 28.7698 47.6023 28.584 47.416L22.584 41.416C22.2085 41.0405 21.9975 40.5311 21.9975 40C21.9975 39.4689 22.2085 38.9595 22.584 38.584C22.9595 38.2085 23.4689 37.9975 24 37.9975C24.5311 37.9975 25.0405 38.2085 25.416 38.584L30 43.172L40.584 32.584C40.9595 32.2085 41.4689 31.9975 42 31.9975C42.5311 31.9975 43.0405 32.2085 43.416 32.584C43.7915 32.9595 44.0025 33.4689 44.0025 34C44.0025 34.5311 43.7915 35.0405 43.416 35.416Z" fill="white"/>
</g>
<defs>
<clipPath id="clip0_172_21203">
<rect width="64" height="64" fill="white"/>
</clipPath>
</defs>
</svg>
