<svg width="138" height="138" viewBox="0 0 138 138" fill="none" xmlns="http://www.w3.org/2000/svg">
<g clip-path="url(#clip0_246_12493)">
<path d="M69.7165 46.3677C57.9992 46.3677 48.4696 56.1707 48.4696 68.2247C48.4696 80.2787 57.9992 90.0817 69.7165 90.0817C81.4339 90.0817 90.9845 80.2787 90.9845 68.2247C90.9845 56.1707 81.4339 46.3677 69.7165 46.3677ZM69.7165 101.252C52.0248 101.252 37.6357 86.4214 37.6357 68.2247C37.6357 50.007 52.0248 35.1973 69.7165 35.1973C87.4293 35.1973 101.818 50.007 101.818 68.2247C101.818 86.4214 87.4293 101.252 69.7165 101.252Z" fill="white"/>
<mask id="mask0_246_12493" style="mask-type:luminance" maskUnits="userSpaceOnUse" x="8" y="7" width="120" height="58">
<path d="M8.75 7.59375H127.228V64.6239H8.75V7.59375Z" fill="white"/>
</mask>
<g mask="url(#mask0_246_12493)">
<path d="M116.583 46.8073C116.583 46.8073 116.351 46.2604 115.931 45.2506C115.867 45.1244 115.825 44.9982 115.762 44.8509C115.699 44.7458 115.657 44.6195 115.594 44.4723C115.468 44.2199 115.342 43.9253 115.194 43.6098C115.068 43.2942 114.879 42.9366 114.689 42.579C114.5 42.2003 114.311 41.8006 114.1 41.3799C113.217 39.7391 112.081 37.7616 110.587 35.6369C110.482 35.4897 110.398 35.3634 110.293 35.2162C110.209 35.09 110.103 34.9427 109.998 34.8165C109.809 34.543 109.599 34.2695 109.388 33.9961C108.967 33.4281 108.526 32.8811 108.063 32.3131C107.6 31.7662 107.116 31.1772 106.59 30.6092C106.064 30.0412 105.559 29.4522 104.97 28.8842C103.856 27.7272 102.614 26.6122 101.31 25.4762C99.9848 24.3613 98.5543 23.2674 97.0397 22.2156C95.504 21.1848 93.8842 20.1961 92.1802 19.2915C90.4552 18.3869 88.6671 17.5455 86.7738 16.8092C83.0293 15.3366 78.9692 14.2427 74.7409 13.6958C72.6372 13.4223 70.4915 13.254 68.3037 13.254C67.1467 13.2119 66.1159 13.275 65.043 13.3171L64.6644 13.3381L64.2436 13.3592L63.4442 13.4433L62.6238 13.5064C62.3503 13.5275 62.0769 13.5485 61.8034 13.5906C57.4699 14.1165 53.1784 15.1262 49.1394 16.704C47.0988 17.4613 45.1424 18.3869 43.2281 19.3756C42.3025 19.9016 41.3558 20.3854 40.4513 20.9534C40.0095 21.2479 39.5467 21.5003 39.1049 21.7948C38.6631 22.0894 38.2424 22.3839 37.8006 22.6784C37.5903 22.8256 37.3589 22.9729 37.1485 23.1202C36.9381 23.2674 36.7278 23.4357 36.5174 23.583C36.0967 23.8985 35.697 24.2141 35.2763 24.5086C34.8766 24.8451 34.4769 25.1607 34.0772 25.4973C33.6775 25.8128 33.2778 26.1284 32.8991 26.486C32.1418 27.1592 31.3845 27.8113 30.6903 28.5266C30.3326 28.8842 29.975 29.2208 29.6384 29.5784C29.3019 29.936 28.9653 30.2936 28.6287 30.6512C25.9781 33.4912 23.7482 36.4994 21.9391 39.4235C20.1509 42.3686 18.7415 45.2296 17.6897 47.8381C17.3952 48.4903 17.1848 49.1424 16.9534 49.7525C16.8272 50.068 16.722 50.3625 16.6168 50.657C16.5116 50.9516 16.4064 51.2671 16.3223 51.5616C16.133 52.1296 15.9436 52.6976 15.7753 53.2235C15.6281 53.7705 15.4808 54.2964 15.3546 54.7802C15.0811 55.7689 14.8918 56.6525 14.7235 57.4308C14.6394 57.8305 14.5342 58.1881 14.4711 58.5037C14.429 58.8403 14.3659 59.1348 14.3238 59.4083C14.1345 60.5022 14.0293 61.0701 14.0293 61.0701C14.0293 61.0701 14.0924 60.4811 14.2186 59.3872C14.2397 59.1137 14.2817 58.8192 14.3028 58.4826C14.3659 58.1461 14.408 57.7884 14.4711 57.3887C14.5973 56.6104 14.7235 55.6848 14.9549 54.6961C15.0601 54.1912 15.1653 53.6442 15.2705 53.0973C15.4177 52.5503 15.565 51.9613 15.7122 51.3723C15.7964 51.0567 15.8595 50.7622 15.9436 50.4467C16.0278 50.1311 16.133 49.8156 16.2171 49.5C16.4275 48.8479 16.5958 48.1747 16.8482 47.5016C17.7528 44.7878 18.9729 41.7586 20.6348 38.6241C22.2756 35.4897 24.3793 32.25 26.9458 29.0945C27.2613 28.7159 27.5769 28.3162 27.9134 27.9165C28.25 27.5168 28.5866 27.1381 28.9442 26.7595C29.6174 25.9601 30.3747 25.2238 31.111 24.4454C31.4897 24.0668 31.8894 23.7092 32.268 23.3305C32.6677 22.9729 33.0674 22.5942 33.4671 22.2366C33.8878 21.879 34.2875 21.5214 34.7083 21.1638C34.9186 20.9744 35.129 20.8061 35.3394 20.6168C35.5708 20.4485 35.7811 20.2802 35.9915 20.1119C36.4333 19.7753 36.875 19.4177 37.3168 19.0811C37.7586 18.7445 38.2214 18.429 38.6842 18.0924C39.5887 17.4192 40.5564 16.8302 41.5241 16.2202C43.4805 15.0421 45.5 13.8851 47.6247 12.9384C51.8531 10.94 56.418 9.53051 61.0881 8.62594C61.3827 8.56283 61.6772 8.52076 61.9717 8.47869L62.8552 8.33143L64.1805 8.1421L64.6433 8.07899C65.8424 7.97381 67.0836 7.82655 68.1775 7.78448C70.5336 7.61618 72.9317 7.63722 75.2878 7.78448C80 8.05796 84.607 8.96253 88.9406 10.3299C91.1074 11.0031 93.19 11.8235 95.2095 12.707C97.208 13.6116 99.1223 14.6003 100.931 15.6522C102.741 16.725 104.466 17.861 106.064 19.0391C107.663 20.2171 109.178 21.4162 110.545 22.6784C111.26 23.2884 111.913 23.9195 112.544 24.5296C113.196 25.1607 113.785 25.7918 114.395 26.4019C114.963 27.033 115.531 27.622 116.057 28.232C116.309 28.5476 116.562 28.8421 116.835 29.1576C116.961 29.3049 117.088 29.4522 117.193 29.5994C117.319 29.7467 117.445 29.8939 117.55 30.0412C119.465 32.4183 120.979 34.6272 122.115 36.5205C122.41 36.9833 122.662 37.4461 122.915 37.8668C123.167 38.2875 123.399 38.6872 123.609 39.0869C123.819 39.4656 124.009 39.8442 124.198 40.1808C124.282 40.3491 124.366 40.4964 124.45 40.6436C124.513 40.7909 124.577 40.9171 124.64 41.0433C125.124 42.032 125.397 42.558 125.397 42.558L116.583 46.8073Z" fill="white"/>
</g>
<mask id="mask1_246_12493" style="mask-type:luminance" maskUnits="userSpaceOnUse" x="101" y="36" width="38" height="26">
<path d="M101.606 36.584H138.357V61.0916H101.606V36.584Z" fill="white"/>
</mask>
<g mask="url(#mask1_246_12493)">
<path d="M101.692 47.7562L138.359 36.6699L125.422 61.0724L101.692 47.7562Z" fill="white"/>
</g>
<mask id="mask2_246_12493" style="mask-type:luminance" maskUnits="userSpaceOnUse" x="13" y="75" width="113" height="54">
<path d="M13.9268 75.2715H125.442V128.768H13.9268V75.2715Z" fill="white"/>
</mask>
<g mask="url(#mask2_246_12493)">
<path d="M22.8661 89.6398C22.8661 89.6398 23.0975 90.1867 23.5182 91.1965C23.5813 91.3016 23.6234 91.4489 23.6865 91.5751C23.7496 91.7013 23.7917 91.8276 23.8548 91.9538C23.981 92.2273 24.1072 92.5218 24.2545 92.8373C24.3807 93.1529 24.5701 93.4895 24.7594 93.8681C24.9487 94.2468 25.138 94.6465 25.3484 95.0462C26.2319 96.708 27.3679 98.6645 28.8615 100.81C28.9667 100.936 29.0508 101.084 29.156 101.21C29.2402 101.357 29.3454 101.483 29.4505 101.631C29.6399 101.883 29.8502 102.157 30.0606 102.451C30.4603 102.998 30.9231 103.545 31.3859 104.134C31.8487 104.681 32.3325 105.27 32.8585 105.838C33.3633 106.406 33.8893 106.995 34.4573 107.542C35.5722 108.72 36.8344 109.835 38.1387 110.971C39.464 112.086 40.8944 113.159 42.4091 114.21C43.9447 115.241 45.5646 116.23 47.2685 117.156C48.9935 118.06 50.7816 118.881 52.6539 119.638C56.4194 121.089 60.4795 122.204 64.7079 122.73C66.8115 123.025 68.9573 123.193 71.1451 123.193C72.3021 123.214 73.3329 123.151 74.3847 123.13L74.7844 123.109L75.2051 123.067L76.0045 123.004L76.8249 122.941C77.0984 122.92 77.3719 122.899 77.6454 122.857C81.9789 122.331 86.2704 121.321 90.3094 119.743C92.3499 118.986 94.3063 118.039 96.2207 117.071C97.1463 116.546 98.0929 116.062 98.9975 115.473C99.4393 115.199 99.9021 114.926 100.344 114.652C100.786 114.358 101.206 114.063 101.648 113.769C101.858 113.621 102.069 113.474 102.3 113.327C102.511 113.159 102.721 113.011 102.931 112.843C103.331 112.549 103.752 112.233 104.173 111.918C104.572 111.602 104.972 111.265 105.372 110.95C105.771 110.613 106.171 110.298 106.529 109.961C107.286 109.288 108.064 108.615 108.758 107.921C109.116 107.563 109.474 107.226 109.81 106.869C110.147 106.511 110.483 106.153 110.82 105.796C113.471 102.935 115.701 99.9477 117.489 97.0026C119.298 94.0785 120.707 91.2175 121.759 88.609C122.054 87.9568 122.264 87.3047 122.495 86.6946C122.601 86.3791 122.727 86.0846 122.832 85.769C122.937 85.4745 123.021 85.18 123.126 84.8855C123.316 84.2965 123.484 83.7495 123.673 83.2026C123.821 82.6556 123.947 82.1507 124.094 81.6459C124.368 80.6782 124.557 79.7736 124.725 78.9952C124.809 78.6166 124.894 78.259 124.978 77.9224C125.02 77.5858 125.083 77.2913 125.125 77.0178C125.314 75.9449 125.419 75.377 125.419 75.377C125.419 75.377 125.356 75.9449 125.23 77.0388C125.209 77.3123 125.167 77.6279 125.146 77.9645C125.083 78.301 125.02 78.6587 124.978 79.0584C124.851 79.8367 124.725 80.7413 124.494 81.751C124.389 82.2559 124.283 82.7818 124.178 83.3498C124.031 83.8968 123.884 84.4648 123.737 85.0748C123.652 85.3693 123.589 85.6849 123.505 86.0004C123.4 86.316 123.316 86.6105 123.211 86.9471C123.021 87.5782 122.853 88.2513 122.601 88.9245C121.696 91.6593 120.476 94.6675 118.814 97.802C117.173 100.936 115.069 104.176 112.503 107.332C112.187 107.731 111.872 108.131 111.535 108.531C111.199 108.909 110.841 109.288 110.505 109.688C109.831 110.487 109.074 111.223 108.338 111.981C107.959 112.38 107.559 112.738 107.16 113.096C106.781 113.474 106.381 113.832 105.982 114.21C105.561 114.568 105.14 114.926 104.74 115.283C104.53 115.452 104.32 115.641 104.109 115.809C103.878 115.999 103.668 116.167 103.457 116.335C103.015 116.672 102.574 117.008 102.132 117.366C101.69 117.703 101.227 118.018 100.765 118.334C99.86 119.007 98.8923 119.596 97.9246 120.227C95.9682 121.405 93.9487 122.541 91.824 123.509C87.5957 125.486 83.0307 126.917 78.3606 127.8C78.0661 127.863 77.7716 127.926 77.4771 127.968L76.5935 128.095L75.71 128.242L75.2682 128.305L74.8054 128.347C73.6063 128.473 72.3652 128.621 71.2713 128.663C68.8941 128.831 66.517 128.81 64.1609 128.663C59.4487 128.368 54.8417 127.464 50.5082 126.117C48.3414 125.423 46.2588 124.624 44.2393 123.74C42.2408 122.835 40.3265 121.826 38.5173 120.774C36.7082 119.701 34.9832 118.586 33.3844 117.408C31.7856 116.209 30.271 115.01 28.8826 113.769C28.1883 113.159 27.5362 112.528 26.9051 111.896C26.253 111.286 25.664 110.655 25.0539 110.045C24.4859 109.414 23.9179 108.804 23.392 108.194C23.1396 107.9 22.8661 107.584 22.6136 107.289C22.4874 107.142 22.3612 106.995 22.235 106.848C22.1298 106.7 22.0036 106.532 21.8774 106.385C19.9841 104.008 18.4694 101.799 17.3335 99.9266C17.039 99.4638 16.7865 99.001 16.5341 98.5803C16.2816 98.1596 16.0502 97.7599 15.8399 97.3602C15.6295 96.9605 15.4402 96.6029 15.2508 96.2663C15.1667 96.098 15.0826 95.9297 14.9984 95.7824C14.9353 95.6562 14.8722 95.509 14.8091 95.4038C14.3042 94.4151 14.0518 93.8891 14.0518 93.8891L22.8661 89.6398Z" fill="white"/>
</g>
<mask id="mask3_246_12493" style="mask-type:luminance" maskUnits="userSpaceOnUse" x="1" y="70" width="41" height="33">
<path d="M1.07129 70.0117H41.0618V102.324H1.07129V70.0117Z" fill="white"/>
</mask>
<g mask="url(#mask3_246_12493)">
<path d="M37.7576 88.6721L1.09082 99.7794L14.0283 75.377L37.7576 88.6721Z" fill="white"/>
</g>
<path d="M71.7772 78.0898C73.2708 78.0898 74.3857 77.7743 75.143 77.1432C75.9003 76.491 76.279 75.5654 76.279 74.3032C76.279 73.041 75.9214 72.0734 75.2272 71.3791C74.5329 70.6639 73.3759 70.138 71.7772 69.7804V78.0898ZM69.2528 63.7849V56.2959C67.8223 56.359 66.7284 56.6956 65.9921 57.3267C65.2348 57.9368 64.8772 58.7993 64.8772 59.9142C64.8772 60.966 65.2137 61.8075 65.8869 62.4176C66.5601 63.0066 67.6961 63.4694 69.2528 63.7849ZM60.207 77.3325L63.5098 73.9666C64.4775 75.2288 65.4241 76.1965 66.3497 76.8276C67.2753 77.4798 68.243 77.8584 69.2528 77.9426V68.9389C66.1814 68.2657 63.9305 67.2349 62.479 65.8255C61.0485 64.416 60.3122 62.5648 60.3122 60.2508C60.3122 57.8526 61.1116 55.9173 62.6893 54.4447C64.2881 52.9932 66.4549 52.1938 69.2528 52.0465V49.1855H71.7772V52.0465C73.4811 52.1938 75.0168 52.6356 76.3842 53.3718C77.7726 54.1081 79.0558 55.1389 80.2549 56.4852L77.0153 59.9984C76.2369 58.8834 75.4375 58.042 74.5961 57.474C73.7336 56.906 72.8079 56.5694 71.7772 56.4852V64.6685C75.143 65.531 77.5622 66.688 78.9927 68.1395C80.4232 69.591 81.1595 71.5685 81.1595 74.0508C81.1595 76.5962 80.297 78.6368 78.614 80.1724C76.9311 81.7081 74.6592 82.5285 71.7772 82.5916V86.7569H69.2528V82.5916C67.3384 82.4023 65.6345 81.8764 64.1409 80.9929C62.6473 80.1304 61.322 78.9102 60.207 77.3325Z" fill="white"/>
</g>
<defs>
<clipPath id="clip0_246_12493">
<rect width="138" height="138" fill="white"/>
</clipPath>
</defs>
</svg>
