<svg width="262" height="67" viewBox="0 0 262 67" fill="none" xmlns="http://www.w3.org/2000/svg">
<path d="M80.9277 24.0054C80.9277 17.7287 85.5921 12.9492 91.984 12.9492C97.2241 12.9492 101.226 16.2315 102.378 20.8671H96.821C95.9573 18.9956 94.2297 17.8727 91.984 17.8727C88.4425 17.8727 86.1679 20.4352 86.1679 24.0054C86.1679 27.5757 88.4425 30.1382 91.984 30.1382C94.2297 30.1382 95.9861 29.0153 96.821 27.1438H102.378C101.226 31.7793 97.2241 35.0617 91.984 35.0617C85.5921 35.0617 80.9277 30.2534 80.9277 24.0054Z" fill="#115399"/>
<path d="M119.423 29.7065V34.63H105.603V13.2949H110.785V29.6777H119.423V29.7065Z" fill="#115399"/>
<path d="M127.484 18.276V21.4431H136.122V26.3666H127.484V29.7065H136.986V34.63H122.302V13.2949H136.986V18.2184H127.484V18.276Z" fill="#115399"/>
<path d="M158.753 13.3223L152.016 34.6573H145.509L138.829 13.3223H144.3L148.791 28.3806L153.283 13.3223H158.753Z" fill="#115399"/>
<path d="M166.814 18.276V21.4431H175.452V26.3666H166.814V29.7065H176.316V34.63H161.632V13.2949H176.316V18.2184H166.814V18.276Z" fill="#115399"/>
<path d="M193.361 29.7065V34.63H179.541V13.2949H184.724V29.6777H193.361V29.7065Z" fill="#115399"/>
<path d="M209.859 30.2248H201.883L200.357 34.63H194.887L202.632 13.2949H209.139L216.884 34.63H211.413L209.859 30.2248ZM208.16 25.3013L205.885 18.6503L203.611 25.3013H208.16Z" fill="#115399"/>
<path d="M238.249 13.3223V34.6573H232.375L224.371 21.2113L224.803 25.7317V34.6573H219.62V13.3223H225.494L233.469 26.7682L233.066 22.2479V13.3223H238.249Z" fill="#115399"/>
<path d="M261.224 24.0042C261.224 30.0793 256.531 34.6573 250.312 34.6573H242.365V13.3223H250.312C256.531 13.3223 261.224 17.929 261.224 24.0042ZM256.042 24.0042C256.042 20.6067 253.709 18.2745 250.312 18.2745H247.548V29.7338H250.312C253.709 29.705 256.042 27.3729 256.042 24.0042Z" fill="#115399"/>
<path d="M95.6694 44.5059L92.963 54.6983H90.9187L89.9398 51.0129L88.9609 46.4637H88.6729L87.694 51.0129L86.7151 54.6983H84.642L81.9355 44.5059H83.6343L84.9299 49.3717L85.7073 52.9708L86.4847 49.3717L87.7516 44.5059H89.8534L91.1203 49.3717L91.8977 52.9708L92.675 49.3717L93.9419 44.5059H95.6694Z" fill="#115399"/>
<path d="M114.787 44.5059H116.428V54.6983H114.787V44.5059Z" fill="#115399"/>
<path d="M144.731 44.5059V54.6983H142.774L137.677 46.838L137.85 50.4371V54.6983H136.209V44.5059H138.138L143.234 52.3661L143.09 48.7671V44.5059H144.731Z" fill="#115399"/>
<path d="M173.293 49.6021C173.293 52.5389 171.048 54.6983 168.082 54.6983H164.512V44.5059H168.082C171.048 44.5059 173.293 46.6365 173.293 49.6021ZM171.623 49.6021C171.623 47.529 170.126 46.0894 168.082 46.0894H166.153V53.1435H168.082C170.126 53.1147 171.623 51.6751 171.623 49.6021Z" fill="#115399"/>
<path d="M202.834 49.603C202.805 52.5974 200.53 54.8719 197.565 54.8719C194.57 54.8719 192.296 52.5974 192.296 49.603C192.296 46.6086 194.599 44.334 197.565 44.334C200.53 44.334 202.805 46.6086 202.834 49.603ZM193.908 49.603C193.908 51.7336 195.463 53.2884 197.536 53.2884C199.58 53.2884 201.135 51.7048 201.135 49.603C201.135 47.4723 199.58 45.9176 197.536 45.9176C195.492 45.8888 193.908 47.4723 193.908 49.603Z" fill="#115399"/>
<path d="M234.765 44.5059L232.058 54.6983H230.014L229.035 51.0129L228.056 46.4637H227.797L226.818 51.0129L225.839 54.6983H223.766L221.06 44.5059H222.758L224.054 49.3717L224.831 52.9708L225.609 49.3717L226.876 44.5059H228.977L230.244 49.3717L231.022 52.9708L231.799 49.3717L233.066 44.5059H234.765Z" fill="#115399"/>
<path d="M261.225 51.7619C261.225 53.9789 259.238 54.8714 257.424 54.8714C254.574 54.8714 253.307 53.2879 253.048 51.5315H254.718C255.034 52.712 255.812 53.3167 257.424 53.3167C258.806 53.3167 259.584 52.7696 259.584 51.8195C259.584 50.8693 258.749 50.7254 256.848 50.2935C254.862 49.8616 253.336 49.3145 253.336 47.3855C253.336 45.37 255.121 44.3047 257.079 44.3047C259.641 44.3047 260.822 45.6291 261.11 47.2415H259.44C259.152 46.4065 258.461 45.8307 257.079 45.8307C255.697 45.8307 254.977 46.4353 254.977 47.3279C254.977 48.0477 255.553 48.278 257.252 48.6523C259.814 49.257 261.225 49.804 261.225 51.7619Z" fill="#115399"/>
<path d="M41.461 45.8655V39.416H34.6084V57.3824" fill="#115399"/>
<path d="M59.8021 39.416V53.6394L50.6174 39.6176L34.6953 66.999H41.0872L50.6174 51.0769L60.234 66.999H66.6547V39.416H59.8021Z" fill="#115399"/>
<path d="M66.654 0H59.8015H19.262H0V6.85255V51.6245V51.5957V60.147V66.9995H6.88135H25.5963H30.6349V60.147H6.88135V12.2655H6.85255V6.85255H46.154H46.1828H59.8015V28.7059V31.6427H66.654V6.85255V0Z" fill="#115399"/>
</svg>
