<svg width="200" height="200" viewBox="0 0 200 200" fill="none" xmlns="http://www.w3.org/2000/svg">
<g id="gis:timer" clip-path="url(#clip0_158_11092)">
<path id="Vector" d="M84 0C82.9391 0 81.9217 0.421427 81.1716 1.17157C80.4214 1.92172 80 2.93913 80 4V12C80 13.0609 80.4214 14.0783 81.1716 14.8284C81.9217 15.5786 82.9391 16 84 16H90V26.59C46.728 31.57 13 68.418 13 113C13 160.966 52.034 200 100 200C147.966 200 187 160.966 187 113C187.014 96.5826 182.352 80.5008 173.56 66.636L182.036 59.774L185.812 64.438C186.142 64.8465 186.55 65.1858 187.012 65.4367C187.473 65.6876 187.98 65.8451 188.502 65.9003C189.024 65.9555 189.553 65.9072 190.056 65.7582C190.56 65.6092 191.03 65.3624 191.438 65.032L197.658 59.996C198.481 59.3279 199.006 58.3603 199.116 57.3057C199.226 56.2511 198.913 55.1959 198.246 54.372L178.11 29.5C177.78 29.0916 177.372 28.7522 176.91 28.5013C176.449 28.2504 175.942 28.0929 175.42 28.0377C174.898 27.9825 174.369 28.0308 173.866 28.1798C173.362 28.3288 172.892 28.5756 172.484 28.906L166.264 33.942C165.441 34.6101 164.916 35.5777 164.806 36.6323C164.696 37.6869 165.009 38.7421 165.676 39.566L169.454 44.23L161.014 51.058C147.54 37.782 129.766 28.87 110 26.594V16H116C117.061 16 118.078 15.5786 118.828 14.8284C119.579 14.0783 120 13.0609 120 12V4C120 2.93913 119.579 1.92172 118.828 1.17157C118.078 0.421427 117.061 0 116 0L84 0ZM100 40C140.4 40 173 72.6 173 113C173 153.4 140.4 186 100 186C59.6 186 27 153.4 27 113C27 72.6 59.6 40 100 40ZM100.004 54.886L100 113L146.468 147.894C152.95 139.262 156.899 128.995 157.874 118.245C158.848 107.494 156.808 96.6846 151.984 87.028C147.16 77.3717 139.741 69.25 130.56 63.5732C121.379 57.8964 110.798 54.887 100.004 54.886Z" fill="white"/>
</g>
<defs>
<clipPath id="clip0_158_11092">
<rect width="200" height="200" fill="white"/>
</clipPath>
</defs>
</svg>
