<svg width="162" height="42" viewBox="0 0 162 42" fill="none" xmlns="http://www.w3.org/2000/svg">
<g id="Group 99">
<g id="Group">
<g id="Group_2">
<g id="Group_3">
<path id="Vector" d="M50 15.1336C50 11.2557 52.8818 8.30273 56.8309 8.30273C60.0685 8.30273 62.5411 10.3307 63.2527 13.1947H59.8194C59.2858 12.0384 58.2184 11.3446 56.8309 11.3446C54.6429 11.3446 53.2376 12.9278 53.2376 15.1336C53.2376 17.3394 54.6429 18.9227 56.8309 18.9227C58.2184 18.9227 59.3035 18.2289 59.8194 17.0726H63.2527C62.5411 19.9366 60.0685 21.9645 56.8309 21.9645C52.8818 21.9645 50 18.9938 50 15.1336Z" fill="white"/>
</g>
<g id="Group_4">
<path id="Vector_2" d="M73.7837 18.6552V21.6971H65.2451V8.51562H68.4471V18.6375H73.7837V18.6552Z" fill="white"/>
</g>
<g id="Group_5">
<path id="Vector_3" d="M78.7645 11.5931V13.5499H84.1011V16.5917H78.7645V18.6552H84.6348V21.6971H75.5625V8.51562H84.6348V11.5575H78.7645V11.5931Z" fill="white"/>
</g>
<g id="Group_6">
<path id="Vector_4" d="M98.0833 8.5332L93.9207 21.7147H89.9004L85.7734 8.5332H89.1533L91.9284 17.8367L94.7034 8.5332H98.0833Z" fill="white"/>
</g>
<g id="Group_7">
<path id="Vector_5" d="M103.064 11.5931V13.5499H108.401V16.5917H103.064V18.6552H108.935V21.6971H99.8623V8.51562H108.935V11.5575H103.064V11.5931Z" fill="white"/>
</g>
<g id="Group_8">
<path id="Vector_6" d="M119.465 18.6552V21.6971H110.927V8.51562H114.129V18.6375H119.465V18.6552Z" fill="white"/>
</g>
<g id="Group_9">
<path id="Vector_7" d="M129.658 18.9754H124.731L123.788 21.6971H120.408L125.193 8.51562H129.214L133.999 21.6971H130.619L129.658 18.9754ZM128.609 15.9336L127.204 11.8243L125.798 15.9336H128.609Z" fill="white"/>
</g>
<g id="Group_10">
<path id="Vector_8" d="M147.198 8.5332V21.7147H143.569L138.624 13.4073L138.89 16.2002V21.7147H135.688V8.5332H139.317L144.245 16.8406L143.996 14.0477V8.5332H147.198Z" fill="white"/>
</g>
<g id="Group_11">
<path id="Vector_9" d="M161.394 15.1329C161.394 18.8863 158.494 21.7147 154.652 21.7147H149.742V8.5332H154.652C158.494 8.5332 161.394 11.3794 161.394 15.1329ZM158.192 15.1329C158.192 13.0338 156.751 11.5929 154.652 11.5929H152.944V18.6728H154.652C156.751 18.655 158.192 17.2141 158.192 15.1329Z" fill="white"/>
</g>
</g>
<g id="Group_12">
<path id="Vector_10" d="M59.1083 27.7988L57.4362 34.0961H56.1732L55.5683 31.8191L54.9635 29.0085H54.7856L54.1808 31.8191L53.576 34.0961H52.2952L50.623 27.7988H51.6726L52.4731 30.8051L52.9534 33.0287L53.4337 30.8051L54.2164 27.7988H55.515L56.2977 30.8051L56.778 33.0287L57.2583 30.8051L58.041 27.7988H59.1083Z" fill="white"/>
<path id="Vector_11" d="M70.9199 27.7988H71.9339V34.0961H70.9199V27.7988Z" fill="white"/>
<path id="Vector_12" d="M89.4208 27.7988V34.0961H88.2111L85.0625 29.2397L85.1692 31.4633V34.0961H84.1553V27.7988H85.3471L88.4957 32.6552L88.4068 30.4316V27.7988H89.4208Z" fill="white"/>
<path id="Vector_13" d="M107.067 30.9474C107.067 32.7619 105.68 34.0961 103.847 34.0961H101.642V27.7988H103.847C105.68 27.7988 107.067 29.1152 107.067 30.9474ZM106.035 30.9474C106.035 29.6666 105.11 28.7772 103.847 28.7772H102.656V33.1355H103.847C105.11 33.1177 106.035 32.2282 106.035 30.9474Z" fill="white"/>
<path id="Vector_14" d="M125.318 30.9468C125.301 32.7968 123.895 34.2021 122.063 34.2021C120.213 34.2021 118.808 32.7968 118.808 30.9468C118.808 29.0967 120.231 27.6914 122.063 27.6914C123.895 27.6914 125.301 29.0967 125.318 30.9468ZM119.804 30.9468C119.804 32.2631 120.764 33.2237 122.045 33.2237C123.308 33.2237 124.269 32.2453 124.269 30.9468C124.269 29.6304 123.308 28.6698 122.045 28.6698C120.782 28.652 119.804 29.6304 119.804 30.9468Z" fill="white"/>
<path id="Vector_15" d="M145.046 27.7988L143.373 34.0961H142.11L141.506 31.8191L140.901 29.0085H140.741L140.136 31.8191L139.531 34.0961H138.25L136.578 27.7988H137.628L138.428 30.8051L138.908 33.0287L139.389 30.8051L140.171 27.7988H141.47L142.253 30.8051L142.733 33.0287L143.213 30.8051L143.996 27.7988H145.046Z" fill="white"/>
<path id="Vector_16" d="M161.394 32.2811C161.394 33.6509 160.166 34.2023 159.046 34.2023C157.285 34.2023 156.502 33.2239 156.342 32.1388H157.374C157.569 32.8682 158.05 33.2417 159.046 33.2417C159.9 33.2417 160.38 32.9037 160.38 32.3167C160.38 31.7297 159.864 31.6407 158.69 31.3739C157.462 31.1071 156.52 30.7691 156.52 29.5772C156.52 28.332 157.623 27.6738 158.832 27.6738C160.415 27.6738 161.145 28.4921 161.323 29.4883H160.291C160.113 28.9724 159.686 28.6166 158.832 28.6166C157.978 28.6166 157.534 28.9902 157.534 29.5417C157.534 29.9864 157.889 30.1287 158.939 30.3599C160.522 30.7335 161.394 31.0715 161.394 32.2811Z" fill="white"/>
</g>
</g>
<g id="Group_13">
<path id="Vector_17" d="M25.6156 28.6409V24.6562H21.3818V35.7565" fill="white"/>
<path id="Vector_18" d="M36.9474 24.6562V33.4439L31.2728 24.7808L21.4355 41.6979H25.3847L31.2728 31.8607L37.2142 41.6979H41.1811V24.6562H36.9474Z" fill="white"/>
<path id="Vector_19" d="M41.1811 0.302734H36.9473H11.9007H0V4.53647V32.1981V32.1803V37.4636V41.6973H4.25153H15.8143H18.9273V37.4636H4.25153V7.88077H4.23374V4.53647H28.5155H28.5332H36.9473V18.0382V19.8526H41.1811V4.53647V0.302734Z" fill="white"/>
</g>
</g>
</svg>
