<svg width="32" height="32" viewBox="0 0 32 32" fill="none" xmlns="http://www.w3.org/2000/svg">
<g id="fluent:mail-20-filled">
<path id="Vector" d="M28.8002 11.7972V23.2004C28.8002 24.2613 28.3788 25.2787 27.6286 26.0288C26.8785 26.779 25.8611 27.2004 24.8002 27.2004H7.2002C6.13933 27.2004 5.12191 26.779 4.37177 26.0288C3.62162 25.2787 3.2002 24.2613 3.2002 23.2004V11.7972L15.5938 19.09C15.7169 19.1626 15.8573 19.2009 16.0002 19.2009C16.1431 19.2009 16.2835 19.1626 16.4066 19.09L28.8002 11.7972ZM24.8002 6.40039C25.7844 6.40024 26.7342 6.76296 27.4677 7.41917C28.2013 8.07539 28.6671 8.97902 28.7762 9.95719L16.0002 17.4724L3.2242 9.95719C3.33325 8.97902 3.79911 8.07539 4.53267 7.41917C5.26622 6.76296 6.21596 6.40024 7.2002 6.40039H24.8002Z" fill="#1973D3"/>
</g>
</svg>
