<svg width="569" height="354" viewBox="0 0 569 354" fill="none" xmlns="http://www.w3.org/2000/svg">
<g clip-path="url(#clip0_311_5193)" filter="url(#filter0_b_311_5193)">
<path d="M455.566 171.031L450.291 175.079L438.298 181.477L438.121 181.571L438.058 181.76L436.659 185.97H434.08H434.047L434.015 185.974L423.515 187.345H413.853H413.714L413.595 187.417L410.234 189.435L400.013 190.092V190.083L399.479 190.119L397.465 190.256L397.463 190.256L395.704 190.371L395.237 190.402V190.409L391.801 190.63L391.8 190.631L378.815 191.501L380.059 185.737L382.777 179.451H384.839H384.906L384.971 179.433L397.947 175.857H415.199H415.248L415.296 175.847L439.53 171.031H455.566Z" stroke="white" stroke-opacity="0.76"/>
<path d="M516.366 153.816L505.278 155.744L505.275 155.745L505.155 155.767L505.143 155.769L505.131 155.772C499.407 157.103 486.305 160.155 484.719 160.558C484.701 160.561 484.684 160.564 484.672 160.566C484.657 160.569 484.648 160.571 484.639 160.573C484.629 160.574 484.62 160.576 484.603 160.58C484.557 160.588 484.511 160.596 484.463 160.601L484.45 160.603L484.437 160.605C482.23 160.956 470.719 162.54 462.533 163.657C462.399 163.675 462.261 163.692 462.121 163.71C461.982 163.728 461.842 163.746 461.705 163.765L461.704 163.765L460.596 163.916L460.308 163.956L460.2 164.226L459.25 166.605H447.173L457.42 157.812L457.42 157.812L457.424 157.809L457.513 157.731H471.443H471.619L471.756 157.621L478.058 152.55L478.186 152.446L478.228 152.286L481.016 141.556L482.588 140.937L482.721 140.884L482.806 140.77L490.461 130.466L495.761 128.476L499.512 133.58L499.597 133.695L499.73 133.748L506.33 136.379L511.123 140.167L509.29 153.251L509.203 153.873L509.829 153.818L516.164 153.268L516.366 153.816Z" stroke="white" stroke-opacity="0.76"/>
<path d="M45.3715 125.973L45.7724 125.407L45.1083 125.206L39.0041 123.357L34.556 117.753L33.3169 105.395L34.7599 90.6316L42.5048 76.6209L50.3152 78.9814L50.3156 78.9815L75.5352 86.6287L66.5935 122.177L66.5383 122.397L66.6669 122.583L108.857 183.702V190.275L103.911 197.399L103.844 197.495L103.827 197.611L102.957 203.532L80.594 201.185L73.7727 185.914L73.7203 185.796L73.6177 185.719L59.6744 175.18L49.5058 162.971L39.177 147.759L44.1631 139.608L44.4045 139.213L44.0296 138.942L38.846 135.191L45.3715 125.973Z" fill="#8DC4FF" stroke="#8DC4FF"/>
<path d="M107.237 83.914L106.384 89.0651L79.0107 83.0321L43.8302 72.3734L44.5994 63.2718L56.0881 43.1512L56.0967 43.1362L56.1042 43.1207L60.7238 33.5508H65.8032L67.3984 36.4352V41.0164V41.3906L67.7575 41.4961L77.548 44.3722L84.6143 46.9807L84.6981 47.0116H84.7874H89.9099H89.9617L90.0125 47.001L99.5347 45.0056L111.741 47.4983L111.742 47.4984L114.475 48.0611L117.976 49.2397L117.976 49.2398L120.735 50.1675L119.304 53.1027L113.248 56.7571L113.08 56.8586L113.026 57.0474L109.314 69.9969L109.305 70.0285L109.3 70.061L107.238 83.9099L107.237 83.914Z" stroke="white" stroke-opacity="0.76"/>
<path d="M119.982 40.0905L119.959 40.1904L119.978 40.2913L120.933 45.5281L115.969 43.8546L115.94 43.8447L115.91 43.8385L99.618 40.5039L99.5169 40.4832L99.4159 40.5043L89.4285 42.5824H85.6176L79.2403 40.2364L79.2248 40.2307L79.209 40.2261L72.1827 38.1567V35.4985V35.3693L72.1202 35.2563L68.8698 29.3866L68.7271 29.1288H68.4324H62.2246V24.8449L65.5984 15.1804L65.6263 15.1004V15.0156V4.00713L74.1618 8.20407L69.9901 10.9463L69.6581 11.1646L69.7957 11.5373L71.9386 17.3422L72.0458 17.6325L72.3534 17.6661L79.9295 18.4944L80.3564 18.541L80.467 18.1261L82.1578 11.7821L84.1094 6.51063L84.1364 6.43758L84.14 6.35977L84.399 0.668047L127.366 11.379L126.745 14.2322L126.744 14.2346L126.311 16.2703L123.132 26.2651L123.126 26.2851L123.121 26.3056L119.982 40.0905Z" fill="#8DC4FF" stroke="#8DC4FF"/>
<path d="M126.95 48.1477L127.197 47.6385L126.662 47.4557L126.095 47.2625L124.828 40.277L127.74 27.4334L130.928 17.4284L130.935 17.4058L130.94 17.3826L132.005 12.4717L133.465 12.795V30.6294V30.7828L133.551 30.9098L139.234 39.3009L141.797 43.3552L140.009 51.4583L139.982 51.5796L140.015 51.6993L141.234 56.107L141.336 56.4738H141.716H145.978L148.901 69.2436L148.936 69.3973L149.053 69.503L153.474 73.5002L153.632 73.6431L153.845 73.628L166.069 72.7584L161.432 100.386L111.052 90.0645L111.969 84.5547L111.969 84.5547L111.97 84.5455L113.965 70.9952L117.223 59.635L122.966 56.1714L123.093 56.095L123.158 55.9618L125.236 51.6826L126.198 52.0042L127 52.2725L126.849 51.4404L126.44 49.196L126.95 48.1477Z" stroke="white" stroke-opacity="0.76"/>
<path d="M126.5 47.9307L125.655 47.6426L125.918 49.1262L126.5 47.9307Z" fill="#8DC4FF"/>
<path d="M126.357 51.5305L125.919 49.125L124.979 51.0696L126.357 51.5305Z" fill="#8DC4FF"/>
<path d="M123.288 158.887L172.388 167.712L172.325 167.986H172.37L165.832 206.849L162.177 228.576C153.144 227.207 140.769 225.305 138.95 224.938C137.813 224.316 132.994 221.274 126.931 217.399C120.858 213.517 113.568 208.818 107.572 204.937L108.44 199.062L113.544 191.696L113.633 191.568V191.412V182.567V182.412L113.544 182.283L100.598 163.528H109.353L119.442 172.265L120.069 172.808L120.256 171.999L123.288 158.887Z" stroke="white" stroke-opacity="0.76"/>
<path d="M233.562 73.0509L238.828 26.9139L228.623 26.5394L176.323 21.7356L137.749 13.2227V29.658L142.903 37.285L146.313 42.6722L144.369 51.4805L144.664 52.5536H149.452L152.861 67.4404L155.251 69.6011L167.647 68.708L169.081 65.9208L233.562 73.0509Z" fill="#8DC4FF"/>
<path d="M191.117 168.977L176.737 167.803L166.707 227.357L166.285 229.885L168.5 230.454L167.273 227.393L188.44 228.387L230.479 229.367L235.841 172.635L191.117 168.977Z" fill="#8DC4FF"/>
<path d="M309.108 215.534H309.191L309.27 215.507L316.818 212.912L326.994 215.451L327.007 215.455L330.189 216.343V230.814V230.936L330.245 231.044L335.725 241.618L332.02 255.398L330.483 254.009L330.34 253.88H330.147H319.783H319.461L319.328 254.173L316.986 259.315L316.818 259.684L317.144 259.925L322.038 263.528L320.097 268.904L303.877 274.244L303.699 274.302L303.603 274.463L302.345 276.584L292.707 280.324L292.388 280.448V280.79V288.189L287.801 291.475L287.511 291.682L287.613 292.024L291.48 304.999L276.193 297.277L274.526 286.075L274.488 285.818L274.256 285.702L270.491 283.807L264.278 275.931L255.34 261.143L255.248 260.992L255.083 260.932L241.181 255.869L241.035 255.816L240.884 255.855L231.228 258.376L231.096 258.41L230.999 258.508L225.615 263.947L219.871 259.259L203.939 236.255L203.873 236.16L203.771 236.103L197.331 232.514L233.932 233.374L234.398 233.385L234.442 232.921L237.023 205.553L237.023 205.553L239.471 179.735L267.728 181.204L266.824 203.635L266.81 203.989L267.139 204.12L288.537 212.625L288.557 212.633L288.577 212.639L298.105 215.513L298.176 215.534H298.25H309.108Z" stroke="white" stroke-opacity="0.76"/>
<path d="M298.713 39.7338V39.8476L298.763 39.9502L301.836 46.3511V63.5494L239.329 60.1853L241.738 39.092L241.738 39.0919L243.056 27.5672L298.713 29.5784V39.7338Z" stroke="white" stroke-opacity="0.76"/>
<path d="M341.053 81.1477L341.111 81.3372L341.282 81.4362L352.689 88.0344L353.878 91.421L309.128 91.8276L310.229 72.5983L310.237 72.4629L310.175 72.3421L306.621 65.3912V45.5256V45.4116L306.572 45.3088L303.49 38.908V29.753L313.319 30.1125L321.601 33.514L321.696 33.5531L321.799 33.5514L331.839 33.3871L347.02 37.9667L347.081 37.985L347.144 37.9876L358.65 38.4575L349.423 45.6131L349.273 45.73L349.238 45.9177L348.485 50.0102L344.64 53.9561L344.596 54.0008L344.565 54.0547L340.191 61.617L340.157 61.676L340.14 61.7419L337.893 70.4133L337.858 70.5489L337.899 70.683L341.053 81.1477Z" fill="#8DC4FF" stroke="#8DC4FF"/>
<path d="M316.245 120.761L316.242 120.656L316.198 120.561L308.436 103.973L308.88 96.2553L355.679 95.8231L359.575 103.02L359.636 103.133L359.744 103.202L366.286 107.412V113.082L360.113 116.697L359.865 116.842V117.128V123.222L356.991 127.309H316.4L316.245 120.761Z" stroke="white" stroke-opacity="0.76"/>
<path d="M378.591 258.604L383.531 259.409L380.129 262.479L379.632 262.928L380.204 263.277L380.525 263.473L368.474 264.061L366.817 259.58L366.718 259.314L366.44 259.262L355.526 257.202L355.338 257.166L355.175 257.265L352.381 258.954L336.331 257.696L340.724 241.337L340.775 241.15L340.686 240.978L334.974 229.93V223.068H362.901L364.484 228.333L361.889 235.772L359.098 242.536L359.044 242.666L359.066 242.805L359.743 247.105L359.81 247.527H360.237H378.679L380.339 252.145L378.203 257.938L377.993 258.507L378.591 258.604Z" fill="#8DC4FF" stroke="#8DC4FF"/>
<path d="M395.182 194.842L394.799 223.67L394.799 223.671L394.493 247.99L389.985 248.423L389.958 248.425L389.932 248.431L384.445 249.561L382.242 243.436L382.123 243.105H381.771H363.982L366.372 237.299L366.378 237.287L366.382 237.274L369.425 228.581L369.479 228.427L369.432 228.272L367.135 220.662L368.536 207.283L377.163 196.044L380.371 195.828L380.371 195.828L395.182 194.842Z" stroke="white" stroke-opacity="0.76"/>
<path d="M433.138 236.629L404.342 238.843L403.702 238.893L403.906 239.501L406.246 246.494L400.858 247.402L399.279 247.55L399.59 223.331L399.59 223.331L399.966 194.531L411.685 193.783L411.807 193.775L411.911 193.712L415.138 191.768H421.929L430.794 218.253L431.894 226.233L433.138 236.629Z" fill="#8DC4FF" stroke="#8DC4FF"/>
<path d="M472.796 241.632L471.943 239.301L475.416 238.425L477.308 243.799L478.655 250.907L478.67 250.986L478.709 251.056L494.336 279.183L496.109 290.431L494.248 300.108L491.816 302.124L489.897 300.738L486.103 295.671L486.099 295.666L486.094 295.66L478.506 286.112L472.564 273.574L472.458 273.352L472.218 273.3L468.902 272.58L466.583 258.174L466.55 257.969L466.381 257.847L452.129 247.606L451.926 247.46L451.687 247.535L442.277 250.492L436.945 250.915L426.9 245.024L426.769 244.947L426.617 244.956L411.05 245.898L410.029 242.844L435.349 240.893L438.63 242.306L438.695 242.334L438.765 242.343L454.228 244.288L454.287 244.295L454.345 244.288L472.382 242.301L473.016 242.231L472.796 241.632Z" stroke="white" stroke-opacity="0.76"/>
<path d="M465.97 236.799L466.593 238.482L454.326 239.839L440.059 238.04L438.006 237.159L436.639 225.713L436.639 225.713L436.638 225.704L435.508 217.5L435.493 217.363L435.487 217.31L435.47 217.259L426.796 191.381L434.248 190.398H435.888H438.245L452.571 206.429L452.748 206.627L453.01 206.592L463.061 205.248L470.716 212.779L474.932 219.421L474.934 219.425L477.119 222.813L474.909 233.972L466.317 236.141L465.777 236.277L465.97 236.799Z" stroke="white" stroke-opacity="0.76"/>
<path d="M437.729 237.584L439.919 238.527L454.323 240.342L439.927 238.527L437.729 237.584Z" fill="#8DC4FF"/>
<path d="M465.005 200.713L464.83 200.541L464.588 200.574L454.725 201.9L444.453 190.399H453.804H453.912L454.01 190.354L465.256 185.264H472.526L479.846 188.153L479.944 188.191L480.048 188.187L488.959 187.853L497.616 191.675L496.571 192.459L496.44 192.557L496.393 192.713L494.248 199.761L489.389 206.761L479.88 218.432L474.596 210.163L474.565 210.115L474.525 210.076L465.005 200.713Z" stroke="white" stroke-opacity="0.76"/>
<path d="M479.815 219.29L479.831 219.283L474.175 210.432L479.815 219.29Z" fill="#8DC4FF"/>
<path d="M441.662 185.972L442.138 184.536L452.86 178.811L452.896 178.792L452.928 178.767L462.265 171.637L462.375 171.553L462.426 171.424L463.808 167.943C474.492 166.496 479.983 165.73 482.825 165.319C485.598 164.918 485.872 164.853 486.004 164.814C486.646 164.648 495.241 162.638 502.577 160.923C503.848 160.626 505.08 160.338 506.228 160.069L514.81 158.581L510.542 164.858L509.938 165.747L511.007 165.637L523.132 164.383L522.987 165.025L516.262 165.991L515.953 166.036L515.857 166.333L513.475 173.737L513.367 174.072L513.646 174.286L516.518 176.493L514.433 177.213L514.312 177.254L514.226 177.349L507.128 185.154L502.687 187.883L502.668 187.895L502.65 187.908L501.729 188.597L490.062 183.436L489.957 183.39L489.841 183.394L480.832 183.736L473.592 180.886L473.504 180.851H473.409H464.256H464.148L464.05 180.896L452.804 185.972H441.662Z" stroke="white" stroke-opacity="0.76"/>
<path d="M399.513 190.619L397.497 190.756L399.513 190.626V190.619Z" fill="#8DC4FF"/>
<path d="M397.481 190.756H397.497L395.736 190.871V190.878L397.465 190.756H397.481Z" fill="#8DC4FF"/>
<path d="M399.513 190.627L397.497 190.757H397.481L399.513 190.627Z" fill="#8DC4FF"/>
<path d="M364.558 124.661L364.649 124.532V124.374V119.273L370.823 115.659L371.07 115.514V115.227V108.221L390.573 106.066L393.155 110.609L393.89 126.716L393.891 126.721L395.193 150.034L393.699 156.385H393.688L393.6 156.773L393.322 157.994L393.321 157.998L393.068 159.065L389.099 165.767L382.831 168.267L382.223 167.938V161.314V160.994L381.933 160.86L374.097 157.235V149.747V149.495L373.895 149.345L371.276 147.404L363.758 139.606L360.682 135.5V130.179L364.558 124.661Z" stroke="white" stroke-opacity="0.76"/>
<path d="M389.712 76.6723L389.551 101.729L379.534 102.833L379.533 102.833L369.305 103.966L363.365 100.149L359.374 92.7561L356.766 85.3176L356.705 85.143L356.545 85.0503L345.22 78.4946L342.8 70.4634L344.66 63.2613L348.538 56.5681L352.039 52.9668L355.414 52.0753L357.404 55.3768L357.576 55.6632L357.907 55.6131L363.893 54.7067L365.134 59.0517L365.215 59.3352L365.503 59.4015L376.125 61.8526L385.523 64.8906L386.614 67.7687L380.75 73.5755L380.234 74.087L380.896 74.3864L386.696 77.008L386.827 77.0673L386.969 77.0477L389.712 76.6723Z" stroke="white" stroke-opacity="0.76"/>
<path d="M405.701 54.1845L405.59 54.1992L405.496 54.2595L390.591 63.8384L390.546 63.8674L390.508 63.9053L390.297 64.1162L389.353 61.6394L389.267 61.4154L389.039 61.3417L377.599 57.647L377.579 57.6405L377.558 57.6357L369.115 55.6786L368.622 53.9399L371.723 53.4011L371.902 53.3701L372.019 53.2321L377.766 46.4663L379.109 45.8986L374.445 50.6047L373.86 51.1951L374.656 51.4353L383.626 54.1433L383.64 54.1475L383.654 54.1508L394.265 56.7004L394.57 56.7736L394.769 56.5314L399.257 51.0607L407.132 50.33L416.748 52.0109L417.335 52.6411L405.701 54.1845Z" stroke="white" stroke-opacity="0.76"/>
<path d="M409.75 153.488L409.622 153.517L409.525 153.605L407.337 155.59L398.655 156.108L399.983 150.467L400 150.397L399.995 150.325L398.665 126.519L398.665 126.514L398.113 114.458L398.15 114.482L398.404 114.361L406.118 110.693H420.027L422.262 129.812L422.263 129.822L422.264 129.832L423.865 140.053L422.316 143.174L416.772 147.301L416.57 147.451V147.702V151.645L415.869 152.103L409.75 153.488Z" stroke="white" stroke-opacity="0.76"/>
<path d="M398.007 156.646H398.015L399.497 150.352L398.007 156.646Z" fill="#8DC4FF"/>
<path d="M456.89 129.155L456.728 129.205L456.631 129.343L452.981 134.489L447.58 139.972H434.921L428.465 138.579L427.006 129.276L424.793 110.328L435.794 108.668L446.97 110.264L447.159 110.291L447.317 110.185L460.734 101.257L461.223 100.981L463.063 108.718V117.036V117.078L463.07 117.12L464.026 122.701L461.878 124.511L461.745 124.624L461.71 124.795L461.099 127.846L456.89 129.155Z" fill="#8DC4FF" stroke="#8DC4FF"/>
<path d="M408.344 106.272L410.266 95.248L410.298 95.0616L410.199 94.9005L404.489 85.6005L403.836 75.2333L409.31 70.9087L409.402 70.8361L409.452 70.7302L414.394 60.2835L423.501 63.2947L429.374 70.8446L421.777 83.8766L421.433 84.4658L422.099 84.6161L430.32 86.4743L430.653 86.5496L430.845 86.2666L433.585 82.2122L437.954 89.4607L433.85 104.475L421.98 106.272H408.344Z" stroke="white" stroke-opacity="0.76"/>
<path d="M511.895 115.499L504.886 116.744L504.875 116.746L504.863 116.748L494.466 119.098H484.014H483.685L483.555 119.4L481.476 124.221L476.309 121.177L476.105 121.057L475.882 121.139L470.167 123.245L468.8 122.302L467.856 116.854V108.298V108.239L467.842 108.182L465.54 98.5306L468.469 96.8817L472.07 98.9511L472.241 99.0495L472.433 99.0043L507.064 90.875L511.322 93.9624L512.826 97.2336L513.781 106.047L513.796 106.181L513.876 106.29L516.433 109.764L511.746 114.156L511.51 114.377L511.615 114.683L511.895 115.499Z" stroke="white" stroke-opacity="0.76"/>
<path d="M497.98 122.857L505.846 121.076L513.682 119.685L519.523 130.117L518.804 136.397L518.166 132.369L518.129 132.136L517.926 132.017L507.124 125.657L506.479 125.278L506.375 126.019L505.635 131.285L502.766 130.135L498.767 124.715L497.98 122.857Z" stroke="white" stroke-opacity="0.76"/>
<path d="M498.337 124.965L502.448 130.547L498.329 124.965H498.337Z" fill="#8DC4FF"/>
<path d="M523.553 85.1663L523.787 85.1019L524.367 92.221L524.367 92.2219L524.497 93.7834H523.548L514.464 90.6232L508.341 86.1937L508.156 86.0598L507.934 86.112L473.041 94.2991L471.367 93.3408L476.365 80.0522L495.704 75.4682L495.999 75.3982L496.073 75.104L498.718 64.6179L506.765 50.3576L514.482 48.63L515.278 52.4545L515.288 52.4999L515.305 52.5427L519.36 62.4025L519.365 62.414L519.37 62.4252L523.553 71.3123V80.5218L523.406 80.5598L523.443 80.9819L523.553 82.2203V84.5101V85.1663Z" fill="#8DC4FF" stroke="#8DC4FF"/>
<path d="M521.589 119.207L517.035 115.89L516.934 115.589L522.276 110.58L522.6 110.276L522.337 109.919L518.433 104.618L517.54 96.4217L522.599 98.1776L522.678 98.2052H522.762H524.92L525.056 99.4386L523.776 113.486L521.589 119.207Z" stroke="white" stroke-opacity="0.76"/>
<path d="M548.828 80.3984L536.833 87.1572L536.164 87.5341L536.779 87.9934L540.328 90.643L529.495 95.9258L528.464 83.7053L543.9 79.0469H547.883L548.828 80.3984Z" stroke="white" stroke-opacity="0.76"/>
<path d="M548.293 68.7219L548.076 74.6256H543.212H543.139L543.068 74.647L528.329 79.0977V73.0616H536.712H536.803L536.888 73.0294L548.293 68.7219ZM551.406 75.9374L555.026 76.8677L554.497 77.2113L552.915 78.1038L551.406 75.9374Z" stroke="white" stroke-opacity="0.76"/>
<path d="M544.501 61.8006L544.591 61.9819L544.782 62.0498L548.485 63.3678L548.468 63.8793L535.864 68.641H535.103L534.384 63.8533V54.753L536.194 42.8706L536.308 42.8378L539.164 51.0124L539.174 51.0417L539.188 51.0694L544.501 61.8006Z" stroke="white" stroke-opacity="0.76"/>
<mask id="mask0_311_5193" style="mask-type:luminance" maskUnits="userSpaceOnUse" x="539" y="9" width="30" height="52">
<path d="M539.428 9.21875H568.721V60.8438H539.428V9.21875Z" fill="white"/>
</mask>
<g mask="url(#mask0_311_5193)">
<path d="M558.687 38.9561L558.611 39.0175L558.564 39.1031L548.765 56.842L548.707 56.9468L548.703 57.0665L548.647 58.6914L548.127 58.5087L543.674 49.5216L540.333 39.9805L544.474 24.4935L550.214 11.285L556.33 12.9739L562.828 26.6887L562.867 26.7718L562.934 26.8354L567.846 31.5489L558.687 38.9561Z" fill="#8DC4FF" stroke="#8DC4FF"/>
</g>
<mask id="path-45-inside-1_311_5193" fill="white">
<path d="M539.811 40.0072L543.212 49.7157L539.811 40V40.0072Z"/>
</mask>
<path d="M539.811 40.0072H538.811V40.1773L538.867 40.3379L539.811 40.0072ZM543.212 49.7157L542.269 50.0464L544.156 49.3852L543.212 49.7157ZM539.811 40L540.754 39.6695L538.811 40H539.811ZM538.867 40.3379L542.269 50.0464L544.156 49.385L540.754 39.6765L538.867 40.3379ZM544.156 49.3852L540.754 39.6695L538.867 40.3305L542.268 50.0462L544.156 49.3852ZM538.811 40V40.0072H540.811V40H538.811Z" fill="#8DC4FF" mask="url(#path-45-inside-1_311_5193)"/>
<path d="M529.599 64.0054L529.599 64.0425L529.605 64.0791L530.277 68.6414H527.509L523.809 60.779L519.928 51.4277L519.137 47.5842L523.294 46.6544L523.309 46.6509L523.325 46.6464L531.143 44.3604L529.621 54.294L529.615 54.3313L529.615 54.3689L529.599 64.0054Z" stroke="white" stroke-opacity="0.76"/>
<path d="M181.95 114.319L164.26 112.375L170.586 74.6753L170.586 74.6751L171.202 70.9923L171.631 70.1578L232.671 76.9012L230.961 96.4192H230.95L230.913 96.8788L230.777 98.5467L230.777 98.5497L230.626 100.282L230.579 100.826H230.59L229.136 118.73L229.136 118.731L229.073 119.528L211.988 117.64L185.715 114.737L185.714 114.737L182.233 114.348L182.229 114.348L181.954 114.32L181.95 114.319Z" stroke="white" stroke-opacity="0.76"/>
<path d="M303.772 101.848L286.796 99.6207L286.778 99.6183L286.76 99.6173L235.738 96.6582L237.621 75.1679L238.825 64.5871L302.676 68.0178L305.399 73.3449L303.989 98.0353L303.989 98.0355L303.772 101.848Z" fill="#8DC4FF" stroke="#8DC4FF"/>
<path d="M237.115 75.1316L235.195 97.127L237.123 75.1172L237.115 75.1316Z" fill="#8DC4FF"/>
<path d="M158.869 115.7L158.781 116.222L159.307 116.28L180.751 118.641L176.538 143.405L176.538 143.405L173.15 163.34L124.285 154.556L136.876 99.8847L160.701 104.767L158.869 115.7Z" fill="#8DC4FF" stroke="#8DC4FF"/>
<path d="M132.216 98.9254L117.158 164.222L111.389 159.22L111.248 159.098H111.061H97.5418L71.6495 121.581L80.1355 87.831L105.558 93.4298L105.548 93.4588L106.117 93.5761L107.824 93.9278L107.83 93.929L109.799 94.3599L110.262 94.4611L110.272 94.4263L132.216 98.9254Z" stroke="white" stroke-opacity="0.76"/>
<path d="M107.931 93.4414L109.906 93.8735L109.914 93.8447L108.345 93.5278L107.931 93.4414Z" fill="#8DC4FF"/>
<path d="M106.226 93.0664L106.218 93.088L107.931 93.4409L107.731 93.3977L106.226 93.0664Z" fill="#8DC4FF"/>
<path d="M246.494 160.827L246.013 170.05L240.499 169.232L240.495 169.231L240.45 169.224L240.46 169.072L239.967 169.033L238.176 168.89L236.248 168.604L235.709 168.525L235.699 168.689L177.895 163.957L181.333 143.673L181.333 143.673L185.5 119.168L230.94 124.185L248.247 126.767L246.494 160.826L246.494 160.827Z" stroke="white" stroke-opacity="0.76"/>
<path d="M177.311 164.41L236.159 169.228H236.167L177.311 164.41Z" fill="#8DC4FF"/>
<path d="M239.92 169.646L239.928 169.531L238.119 169.387L238.191 169.394L239.92 169.646Z" fill="#8DC4FF"/>
<path d="M185.086 118.619L231.005 123.689H230.997L185.086 118.619Z" fill="#8DC4FF"/>
<path d="M253.197 123.484L253.22 123.031L252.771 122.964L233.819 120.138L235.367 101.076L257.767 102.366L257.767 102.366L286.221 104.014L304.358 106.389L311.487 121.617L311.616 127.309H310.479H309.476L310.079 128.11L311.679 130.235L311.7 131.24L311.71 131.73H312.199H312.811L315.064 134.716L252.705 133.184L253.197 123.484Z" stroke="white" stroke-opacity="0.76"/>
<path d="M312.2 131.231H313.06L312.176 130.064L312.2 131.231Z" fill="#8DC4FF"/>
<path d="M304.695 105.929L286.268 103.509L257.796 101.867L286.268 103.516L304.695 105.929Z" fill="#8DC4FF"/>
<path d="M374.454 185.062L374.604 185.264H374.856H375.289L373.618 193.019L363.992 205.577L363.906 205.689L363.891 205.829L362.544 218.647H334.974V213.436V213.056L334.608 212.954L330.112 211.706L331.118 181.678H371.951L374.454 185.062Z" stroke="white" stroke-opacity="0.76"/>
<path d="M239.878 175.331L240.04 173.638L243.79 174.195L243.79 174.195L245.793 174.49L245.783 174.771L246.289 174.783L248.058 174.826L249.995 175.117L250.533 175.197L250.553 174.889L267.081 175.295L267.081 175.295L324.209 176.678L324.94 177.803L324.941 177.804L326.385 180.041L325.367 210.466L316.734 208.311L316.59 208.275L316.45 208.324L308.332 211.12H298.937L290.329 208.525L271.71 201.116L272.66 177.53L272.68 177.036L272.186 177.011L239.878 175.331Z" fill="#8DC4FF" stroke="#8DC4FF"/>
<path d="M250.068 174.623L250.084 174.379L248.101 174.328L250.068 174.623Z" fill="#8DC4FF"/>
<path d="M326.889 179.902L325.846 211.102H325.854L326.889 179.902Z" fill="#8DC4FF"/>
<path d="M320.176 147.436V147.688L320.379 147.838L325.18 151.388L323.381 172.24L268.707 170.912L268.706 170.912L250.785 170.471L252.471 137.606L318.934 139.239L320.176 140.063V147.436Z" stroke="white" stroke-opacity="0.76"/>
<path d="M434.324 144.38L434.376 144.391H434.429H447.288L449.585 147.884L453.295 154.368L453.643 155.016L440.489 166.308L414.735 171.437H397.313H397.246L397.18 171.455L384.212 175.03H384.114L384.747 172.318L392.344 169.282L392.502 169.219L392.589 169.073L397.56 160.682L397.602 160.612L397.603 160.608L409.237 159.904L409.412 159.893L409.542 159.776L412.042 157.523L417.81 156.212L417.899 156.192L417.975 156.142L421.122 154.068L421.346 153.92V153.65V149.566L426.092 146.035L426.188 145.964L426.241 145.857L427.686 142.95L434.324 144.38Z" stroke="white" stroke-opacity="0.76"/>
<path d="M493.556 124.528L487.471 126.815L487.333 126.867L487.245 126.985L479.572 137.32L477.172 138.254L476.934 138.347L476.87 138.595L473.9 150.037L469.833 153.309H458.065L457.561 152.357L457.557 152.35L457.552 152.343L453.768 145.753L453.761 145.74L453.753 145.728L451.608 142.443L456.639 137.335L456.666 137.308L456.689 137.276L459.818 132.91L465.004 131.289L465.287 131.201L465.345 130.91L466.147 126.892L466.739 126.398L469.231 128.12L469.444 128.267L469.687 128.177L475.599 126.005L477.244 126.972V130.647V131.308L477.88 131.128L484.222 129.334L484.45 129.27L484.545 129.051L486.932 123.52H493.13L493.556 124.528Z" stroke="white" stroke-opacity="0.76"/>
<mask id="mask1_311_5193" style="mask-type:luminance" maskUnits="userSpaceOnUse" x="-1" y="324" width="7" height="5">
<path d="M-0.27832 324.5H5.09907V328.187H-0.27832V324.5Z" fill="white"/>
</mask>
<g mask="url(#mask1_311_5193)">
<path d="M3.50572 326.559V325.875H1.0839L-0.326172 326.559H3.50572Z" fill="#8DC4FF"/>
</g>
<path d="M23.1205 305.833L22.9874 305.54H22.6651H20.1299V305.164H22.6687L25.1405 307.088L26.659 309.983H25.0029L23.1205 305.833Z" stroke="#8DC4FF"/>
<path d="M23.3975 330.557L20.5137 329.088L20.8881 330.557H23.3975Z" fill="#8DC4FF"/>
<path d="M131.4 338.083L131.472 338.277L131.658 338.364L136.051 340.417L137.465 341.991L138.043 345.295L137.532 347.3L137.418 347.272L132.04 345.91L131.631 345.807L131.46 346.193L130.429 348.531H129.694L129.127 347.831V343.046V342.885L129.034 342.754L126.285 338.93L126.135 338.722H125.879H123.274L123.495 337.488L123.555 337.155L123.268 336.976L119.865 334.847L119.21 331.07L119.189 330.949L119.115 330.852L114.995 325.445L112.706 322.145L115.687 322.018L115.823 322.013L115.937 321.939L119.521 319.629L121.132 319.314L123.324 321.87L124.117 327.637L124.155 327.91L124.406 328.024L128.026 329.667L129.551 333.044L131.4 338.083Z" stroke="white" stroke-opacity="0.76"/>
<path d="M108.074 316.741L104.307 313.597L107.802 316.217L108.074 316.741ZM103.349 312.798L102.818 312.354L102.671 312.232L102.479 312.239L96.3947 312.464L92.9155 310.426L85.9927 304.648L85.8603 304.538L85.6881 304.532L80.4541 304.367L80.2373 304.36L80.0842 304.513L77.2875 307.319L72.8962 310.1L68.6052 310.794L69.3344 309.441L71.8233 306.048L71.9202 305.916V305.752V298.082V296.76L71.0453 297.751L66.3731 303.045L61.6568 306.156L61.5699 306.213L61.5131 306.3L58.7885 310.485L58.7754 310.505L58.7642 310.526L57.138 313.643L50.2701 315.438L50.1519 315.469L50.0612 315.551L46.132 319.103L38.2962 321.018L38.1684 321.049L38.0725 321.139L35.0143 324.014H22.4716L23.6999 323.771L26.8356 323.997L26.9144 324.003L26.9912 323.984L32.9183 322.522L32.9261 322.52L32.9338 322.518L40.8286 320.299L40.9802 320.257L41.08 320.135L44.1937 316.337L50.2871 311.45L50.8557 310.994L50.2257 310.628L44.2428 307.149L44.1536 307.097L44.0513 307.085L40.8394 306.698L38.7201 304.144L38.5986 303.997L38.4105 303.969L35.5103 303.527L34.5587 302.484C35.4709 299.965 35.9271 298.534 36.041 297.637C36.102 297.157 36.0742 296.769 35.9237 296.43C35.7767 296.098 35.5362 295.871 35.3246 295.68L35.3217 295.677C34.6813 295.107 33.7934 294.917 32.9676 295.126C32.7508 295.175 31.9473 295.298 30.8995 295.458C30.8544 295.465 30.8088 295.472 30.7628 295.479L30.6089 290.665L31.718 287.859L31.7621 287.747L31.7508 287.628L31.3889 283.806L32.7203 280.852L37.1241 279.303L37.6934 280.077L37.8591 280.303L38.138 280.28L41.2369 280.02L41.3816 280.008L41.4973 279.92L42.8246 278.914L52.5498 279.804L53.0787 279.852L53.0951 279.321L53.2942 272.854L53.3003 272.656L53.1691 272.507L49.3054 268.136L49.1947 268.01L49.031 267.977L44.6754 267.085L44.5711 261.27L44.5677 261.08L44.439 260.94L42.1891 258.497L42.3328 257.591L43.3088 257.679L46.2063 258.936L46.2977 258.976L46.3973 258.977L52.3674 259.073L55.9955 268.056L56.5989 269.55L56.9473 267.977L58.899 259.162L58.9046 259.136L58.9076 259.111L59.8237 251.167L59.865 250.809L59.5385 250.656L55.6182 248.827L55.0798 244.97L56.8716 243.879L60.7118 244.769L60.8216 244.794L60.9318 244.77L66.4844 243.553L66.5924 243.529L66.6803 243.463L71.8996 239.488H77.4809L80.5437 241.068L80.7783 241.189L81.0105 241.063L83.363 239.792L86.3079 241.16L88.9069 242.455L88.7654 247.068L88.7496 247.583H89.2652H95.3356L100.518 249.278L103.97 251.713L104.061 251.776L104.17 251.796L109.203 252.702L114.002 255.541L106.139 292.191L102.885 303.526L102.877 303.555L102.872 303.584L101.86 309.893L101.833 310.064L101.917 310.215L103.349 312.798Z" fill="#8DC4FF" stroke="#8DC4FF"/>
<path d="M170.467 285.789L171.112 288.93L174.251 288.49V285.365L173.582 284.688L170.467 285.789Z" fill="#8DC4FF"/>
<path d="M180.809 280.035V285.012L184.378 288.93L188.68 287.835L190.121 285.228V281.497L183.469 280.035H180.809Z" fill="#8DC4FF"/>
<path d="M215.39 296H206.571L205.408 299.875L206.006 303.706L216.02 306.594L218.179 302.835L215.39 296Z" fill="#8DC4FF"/>
<path d="M234.956 314.885L236.605 318.5L237.92 321.54H243.297V317.355L239.744 316.102L234.956 314.885Z" fill="#8DC4FF"/>
<path d="M230.829 310.024L226.719 309.174L226.288 307.402H224.09L222.887 308.591L228.328 313.323L230.71 317.442H231.204V313.927L230.829 313.834V310.024Z" fill="#8DC4FF"/>
<path d="M261.891 338.817L260.505 335.043L254.53 331.644L249.718 329.469H249.288L247.965 336.073L244.604 339.415L246.858 344.665L248.499 349.116L248.045 353.121L250.65 353.963L256.37 351.579L258.792 347.575L263.962 346.855L266.193 344.622L265.014 342.706L261.891 338.817Z" fill="#8DC4FF"/>
</g>
<defs>
<filter id="filter0_b_311_5193" x="-12" y="-12" width="593" height="378" filterUnits="userSpaceOnUse" color-interpolation-filters="sRGB">
<feFlood flood-opacity="0" result="BackgroundImageFix"/>
<feGaussianBlur in="BackgroundImageFix" stdDeviation="6"/>
<feComposite in2="SourceAlpha" operator="in" result="effect1_backgroundBlur_311_5193"/>
<feBlend mode="normal" in="SourceGraphic" in2="effect1_backgroundBlur_311_5193" result="shape"/>
</filter>
<clipPath id="clip0_311_5193">
<rect width="569" height="354" fill="white"/>
</clipPath>
</defs>
</svg>
