<svg width="32" height="32" viewBox="0 0 32 32" fill="none" xmlns="http://www.w3.org/2000/svg">
<g id="mdi:location">
<path id="Vector" d="M16.0003 15.3327C15.1163 15.3327 14.2684 14.9815 13.6433 14.3564C13.0182 13.7313 12.667 12.8834 12.667 11.9993C12.667 11.1153 13.0182 10.2674 13.6433 9.64233C14.2684 9.01721 15.1163 8.66602 16.0003 8.66602C16.8844 8.66602 17.7322 9.01721 18.3573 9.64233C18.9825 10.2674 19.3337 11.1153 19.3337 11.9993C19.3337 12.4371 19.2474 12.8705 19.0799 13.275C18.9124 13.6794 18.6669 14.0468 18.3573 14.3564C18.0478 14.6659 17.6804 14.9114 17.2759 15.0789C16.8715 15.2465 16.4381 15.3327 16.0003 15.3327ZM16.0003 2.66602C13.525 2.66602 11.151 3.64935 9.40066 5.39969C7.65032 7.15003 6.66699 9.524 6.66699 11.9993C6.66699 18.9993 16.0003 29.3327 16.0003 29.3327C16.0003 29.3327 25.3337 18.9993 25.3337 11.9993C25.3337 9.524 24.3503 7.15003 22.6 5.39969C20.8496 3.64935 18.4757 2.66602 16.0003 2.66602Z" fill="#1973D3"/>
</g>
</svg>
