<svg width="32" height="32" viewBox="0 0 32 32" fill="none" xmlns="http://www.w3.org/2000/svg">
<g id="f7:phone-fill">
<path id="Vector" d="M10.3752 21.5782C14.2461 25.4485 18.9604 28.4353 22.8038 28.4353C24.5318 28.4353 26.045 27.8325 27.2638 26.493C27.9735 25.7027 28.4158 24.7787 28.4158 23.8685C28.4158 23.1987 28.161 22.5559 27.5187 22.1005L23.4198 19.1805C22.7907 18.7519 22.2684 18.5376 21.7861 18.5376C21.1701 18.5376 20.6341 18.8862 20.0181 19.4885L19.0672 20.4262C18.9328 20.5622 18.7499 20.6392 18.5587 20.6405C18.3444 20.6405 18.1564 20.5605 18.0095 20.493C17.1924 20.0513 15.773 18.8325 14.4467 17.5199C13.1341 16.2073 11.9152 14.7879 11.4867 13.9576C11.3942 13.7938 11.3437 13.6097 11.3398 13.4216C11.3398 13.2479 11.393 13.073 11.5404 12.9262L12.4775 11.949C13.081 11.3325 13.429 10.7965 13.429 10.1805C13.429 9.69874 13.2147 9.17645 12.773 8.54674L9.89296 4.48845C9.42439 3.8456 8.76839 3.56445 8.04496 3.56445C7.16096 3.56445 6.23696 3.96617 5.46039 4.73017C4.16096 5.97588 3.58496 7.51531 3.58496 9.21588C3.58496 13.0599 6.5181 17.721 10.3752 21.5782Z" fill="#1973D3"/>
</g>
</svg>
