<svg width="201" height="166" viewBox="0 0 201 166" fill="none" xmlns="http://www.w3.org/2000/svg">
<g id="Group 109">
<path id="Vector" fill-rule="evenodd" clip-rule="evenodd" d="M92.7288 86.7233L81.7913 98.6591L81.7045 98.7025C76.5396 103.867 68.1195 103.867 62.9545 98.7025C58.8313 94.5792 57.8764 88.2858 60.6108 83.1209C63.3451 78.0427 67.5552 71.4889 73.5014 66.1504C67.3382 66.324 58.0934 66.8882 49.3261 68.7546L35.1768 117.93L39.3868 122.14L46.4181 115.065C49.8035 111.68 55.359 111.68 58.7445 115.065C60.3938 116.715 61.3052 118.928 61.3052 121.228V121.532C63.6056 121.445 65.9493 122.314 67.7288 124.05C69.3781 125.699 70.2896 127.913 70.2896 130.213V130.473C72.5899 130.43 74.9337 131.255 76.7132 133.034C78.3625 134.683 79.274 136.853 79.274 139.197L79.2306 139.458C81.5743 139.414 83.9181 140.239 85.6542 142.018C89.083 145.404 89.083 150.959 85.6542 154.345L78.6229 161.376L81.0101 163.763C83.8746 166.628 88.5621 166.628 91.4267 163.763C92.8156 162.374 93.5969 160.551 93.5969 158.555C93.5969 157.6 93.4233 156.689 93.076 155.777C92.6854 154.866 92.1646 154.041 91.4267 153.347C90.5153 152.435 90.5153 150.916 91.4267 150.005C92.3816 149.05 93.8573 149.05 94.8121 150.005L103.84 159.032C106.705 161.897 111.392 161.897 114.257 159.032C115.645 157.643 116.427 155.777 116.427 153.824C116.427 151.871 115.689 150.048 114.343 148.659L96.0274 130.386C95.116 129.432 95.116 127.956 96.0274 127.001C96.9389 126.09 98.458 126.09 99.3694 127.001L117.816 145.447L121.592 149.18C124.456 152.088 129.1 152.088 132.008 149.18C134.873 146.315 134.873 141.671 132.008 138.763L109.786 116.584C108.875 115.673 108.875 114.154 109.786 113.242C110.741 112.288 112.26 112.288 113.172 113.242L131.878 131.949C131.965 131.992 132.008 132.036 132.052 132.079C133.441 133.468 135.264 134.249 137.26 134.249C139.213 134.249 141.036 133.468 142.468 132.079C143.553 130.951 144.248 129.562 144.508 128.043C144.552 127.652 144.595 127.261 144.595 126.871C144.595 124.918 143.857 123.051 142.468 121.663L107.225 86.4195C104.665 83.8587 100.889 82.8604 97.4163 83.8587C95.6368 84.3795 94.0309 85.3344 92.7288 86.7233Z" fill="white"/>
<path id="Vector_2" fill-rule="evenodd" clip-rule="evenodd" d="M102.717 61.7223C95.295 60.3769 88.2637 61.6789 81.8835 65.7154C81.8401 65.7588 81.7533 65.8022 81.7099 65.8022C73.637 70.9671 68.0814 79.257 64.8262 85.3768C63.0901 88.6754 63.6978 92.7119 66.3453 95.3595C69.6439 98.6581 74.9825 98.6581 78.3245 95.4029L89.262 83.5105C91.1283 81.4706 93.5155 80.0383 96.1196 79.3005C101.285 77.8248 106.84 79.3005 110.616 83.0765L145.859 118.276C147.856 120.316 149.114 122.964 149.331 125.785C153.064 125.307 160.139 123.918 166.432 120.099L151.545 68.4498L137.482 74.4828C136.701 74.83 135.833 74.7432 135.139 74.2657C121.727 64.5435 103.021 61.7658 102.847 61.7223H102.717Z" fill="white"/>
<g id="Clip path group">
<mask id="mask0_311_4107" style="mask-type:luminance" maskUnits="userSpaceOnUse" x="150" y="44" width="51" height="90">
<g id="48254da527">
<path id="Vector_3" d="M150.5 44.4902H200.5V133.379H150.5V44.4902Z" fill="white"/>
</g>
</mask>
<g mask="url(#mask0_311_4107)">
<g id="Group">
<path id="Vector_4" fill-rule="evenodd" clip-rule="evenodd" d="M154.837 62.7198L171.417 120.315C171.46 120.402 171.504 120.489 171.504 120.576L172.459 123.831C172.849 125.22 174.281 126.001 175.67 125.61L198.457 119.274C199.151 119.1 199.716 118.666 200.063 118.058C200.41 117.407 200.453 116.713 200.28 116.018L182.658 54.9507C182.354 53.7789 181.269 53.041 180.141 53.041C179.924 53.041 179.663 53.0844 179.446 53.1278L156.66 59.508C155.966 59.6816 155.401 60.1157 155.054 60.7233C154.707 61.3309 154.62 62.0688 154.837 62.7198ZM179.49 67.798C180.662 72.0514 178.188 76.4351 173.934 77.6504C173.24 77.824 172.502 77.9108 171.808 77.9108C168.292 77.9108 165.08 75.6104 164.125 72.0948C163.561 70.0115 163.821 67.8848 164.863 66.0184C165.905 64.1521 167.597 62.85 169.681 62.2424C173.891 61.0705 178.318 63.5445 179.49 67.798Z" fill="white"/>
</g>
</g>
</g>
<path id="Vector_5" fill-rule="evenodd" clip-rule="evenodd" d="M170.947 66.8431C170.123 67.0601 169.428 67.6243 168.994 68.3622C168.56 69.1 168.474 69.9681 168.691 70.7927C168.951 71.6608 169.472 72.3118 170.21 72.7459C170.947 73.1799 171.859 73.2667 172.684 73.0497C174.376 72.5723 175.375 70.7928 174.897 69.1C174.506 67.6678 173.204 66.7129 171.816 66.7129C171.512 66.7129 171.251 66.7563 170.947 66.8431Z" fill="white"/>
<path id="Vector_6" fill-rule="evenodd" clip-rule="evenodd" d="M125.712 32.9457C125.712 42.8415 122.457 52.3468 116.468 60.1159C118.768 60.8103 121.198 61.6784 123.759 62.72C129.879 53.9961 133.091 43.753 133.091 32.9891V12.7634L100.495 0.0898438L67.8564 12.7634V32.9891C67.8564 43.1454 70.7644 52.911 76.2766 61.3311C77.9259 61.3311 79.1846 61.3311 79.879 61.3311C81.1811 60.5499 82.5266 59.8554 83.8721 59.2912C78.2731 51.6957 75.2349 42.4509 75.2349 32.9891V19.4041C75.2349 18.4492 75.8426 17.5378 76.754 17.1905L99.6273 8.29298C100.191 8.07595 100.799 8.07595 101.32 8.29298L124.237 17.1905C125.148 17.5378 125.756 18.4492 125.756 19.4041V32.9457H125.712Z" fill="white"/>
<path id="Vector_7" fill-rule="evenodd" clip-rule="evenodd" d="M113.427 31.9052L97.4986 47.834C97.0211 48.3114 96.4135 48.5284 95.8059 48.5284C95.1982 48.5284 94.5906 48.3114 94.1132 47.834L87.5159 41.1933C86.5611 40.2819 86.5611 38.7628 87.5159 37.8513C88.4274 36.9399 89.9465 36.9399 90.858 37.8513L95.8059 42.7992L110.085 28.5197C110.997 27.6083 112.516 27.6083 113.427 28.5197C114.382 29.4746 114.382 30.9503 113.427 31.9052ZM79.9639 32.9902C79.9639 41.9312 83.0021 50.6117 88.5576 57.5996C93.3319 56.2541 98.3666 56.0805 103.532 57.0354C104.052 57.0788 107.091 57.5562 111.518 58.6847C117.637 51.5232 120.979 42.452 120.979 32.9902V21.0545L100.493 13.0684L79.9639 21.0545V32.9902Z" fill="white"/>
<path id="Vector_8" fill-rule="evenodd" clip-rule="evenodd" d="M27.4041 67.1469C26.6229 67.581 26.102 68.2754 25.885 69.1C25.4076 70.7928 26.4058 72.5723 28.0985 73.0497C28.9232 73.2667 29.7913 73.1799 30.5725 72.7459C31.3104 72.3118 31.8746 71.6174 32.0916 70.7927C32.569 69.1 31.5708 67.3205 29.8347 66.8431C29.5742 66.7563 29.2704 66.7129 28.9666 66.7129C28.4458 66.7129 27.8815 66.8431 27.4041 67.1469Z" fill="white"/>
<g id="Clip path group_2">
<mask id="mask1_311_4107" style="mask-type:luminance" maskUnits="userSpaceOnUse" x="0" y="44" width="51" height="90">
<g id="c3fdbd258e">
<path id="Vector_9" d="M0.5 44.4902H50.5V133.379H0.5V44.4902Z" fill="white"/>
</g>
</mask>
<g mask="url(#mask1_311_4107)">
<g id="Group_2">
<path id="Vector_10" fill-rule="evenodd" clip-rule="evenodd" d="M18.2871 54.9512L0.665594 116.019C0.491983 116.713 0.535386 117.408 0.882608 118.059C1.22983 118.666 1.79408 119.101 2.48852 119.274L25.275 125.611C26.6638 126.002 28.0961 125.22 28.4868 123.831L30.1795 118.059C30.1795 117.972 30.2229 117.885 30.2229 117.798L46.1083 62.7203C46.3253 62.0693 46.2385 61.3314 45.8913 60.7238C45.544 60.1162 44.9798 59.6821 44.3288 59.4651L21.4989 53.1283C20.11 52.7377 18.6777 53.5623 18.2871 54.9512ZM26.8375 77.6509C24.7975 77.0432 23.0614 75.7412 22.0198 73.8748C20.9781 72.0085 20.7177 69.8384 21.2819 67.7984C22.4972 63.5884 26.8809 61.071 31.1343 62.2429C35.3444 63.4582 37.8618 67.8418 36.6899 72.0953C36.0823 74.1353 34.7802 75.8714 32.9138 76.913C31.6986 77.5641 30.3531 77.9113 29.0076 77.9113C28.2698 77.9113 27.5319 77.8245 26.8375 77.6509Z" fill="white"/>
</g>
</g>
</g>
<path id="Vector_11" fill-rule="evenodd" clip-rule="evenodd" d="M49.7592 118.451L42.2505 125.96C42.0335 126.177 41.8165 126.481 41.6429 126.785L41.5995 126.871C41.2957 127.436 41.1221 128.087 41.1221 128.738C41.1221 129.823 41.5127 130.821 42.2505 131.559C43.0318 132.297 44.0301 132.731 45.0717 132.731C46.1568 132.731 47.1116 132.297 47.8929 131.559L55.4016 124.05C56.1394 123.312 56.5301 122.314 56.5301 121.229C56.5301 120.187 56.1394 119.189 55.4016 118.451C53.8391 116.889 51.3217 116.889 49.7592 118.451Z" fill="white"/>
<path id="Vector_12" fill-rule="evenodd" clip-rule="evenodd" d="M58.7402 127.434L51.2316 134.942L48.5406 137.59C47.8027 138.371 47.4121 139.369 47.4121 140.411C47.4121 141.453 47.8027 142.451 48.5406 143.232C50.1031 144.751 52.6204 144.751 54.1829 143.232L64.3392 133.033C65.1204 132.295 65.5111 131.296 65.5111 130.255C65.5111 129.17 65.1204 128.171 64.3392 127.434C62.8201 125.871 60.3027 125.871 58.7402 127.434Z" fill="white"/>
<path id="Vector_13" fill-rule="evenodd" clip-rule="evenodd" d="M76.7134 145.359L67.2516 154.821C66.6006 155.559 66.21 156.514 66.21 157.512C66.21 158.554 66.644 159.552 67.3818 160.333C68.1197 161.071 69.1179 161.462 70.203 161.462C71.2447 161.462 72.2429 161.071 72.9808 160.333L73.5884 159.726V159.682L82.3124 151.002C83.8749 149.439 83.8749 146.922 82.3124 145.359C80.7933 143.84 78.3627 143.84 76.8002 145.273L76.7134 145.359Z" fill="white"/>
<path id="Vector_14" fill-rule="evenodd" clip-rule="evenodd" d="M67.6433 136.505L57.6173 146.487L54.5791 149.526C53.8412 150.307 53.4072 151.305 53.4072 152.347C53.4072 153.388 53.8412 154.387 54.5791 155.168C55.3603 155.906 56.3152 156.296 57.4003 156.296C58.4419 156.296 59.4402 155.906 60.2215 155.168L73.3291 142.017C74.1103 141.279 74.501 140.281 74.501 139.196C74.501 138.154 74.1103 137.156 73.3291 136.418C72.5912 135.637 71.5496 135.246 70.5513 135.246C69.553 135.246 68.5982 135.593 67.8169 136.288L67.7301 136.418L67.6433 136.505Z" fill="white"/>
</g>
</svg>
